<?xml version="1.0" encoding="UTF-8"?><svg xmlns="http://www.w3.org/2000/svg" viewBox="0 0 978.33 1179.3"><defs><style>.cls-1{opacity:.7;}.cls-1,.cls-2{mix-blend-mode:multiply;}.cls-3{fill:#000;}.cls-3,.cls-4,.cls-5,.cls-6,.cls-7,.cls-8,.cls-9,.cls-10,.cls-11,.cls-12,.cls-13,.cls-14,.cls-15{stroke-width:0px;}.cls-4{fill:#422a05;}.cls-5{fill:#2d1d01;}.cls-6{fill:#efd9c2;}.cls-16{isolation:isolate;}.cls-7{fill:#8c604f;}.cls-8{fill:#59342e;}.cls-9{fill:#754e3f;}.cls-10{fill:#1c1203;}.cls-2{opacity:.6;}.cls-11,.cls-15{fill:#e5c5a8;}.cls-12{fill:#f59a58;}.cls-13{fill:#fff;}.cls-14{fill:#a38871;}.cls-15{mix-blend-mode:screen;}</style></defs><g class="cls-16"><g id="Capa_2"><g id="Layer_1"><path class="cls-8" d="M285.94,165.82c28.34-15.86,60.2-25.06,92.51-27.89,8.44-.62,17.11-1.89,25.37.71-19.45,39.67-30.37,83.04-36.24,126.69-3.08,23.2-4.75,46.57-5.27,69.97-.33,11.78.05,23.56-.2,35.35-5.45-7.42-12.05-14.09-19.88-18.98.62-58.84,8.45-118.51,31.1-173.2-35.02,3.18-69.15,16.19-97.24,37.37-14.72,11.08-27.92,24.14-39.5,38.44-20.4,25.62-35.85,54.86-47.59,85.35-19.97,52.24-30.13,107.76-34.96,163.33-4.29,50.9-4.06,102.41,3.93,152.95,5.52,34.77,14.94,69.09,30.06,100.96,16.81,35.35,41.54,67.62,74.13,89.76,32.3,22.53,71.32,33.98,110.36,36.7,13.25.89,26.55,1.64,39.82.99.7-37.43-3.31-74.78-9.21-111.7-6.48-40.33-15.14-80.26-23.95-120.13-.41-.09-1.22-.27-1.63-.37,2.38-1.35,5.53-3.41,4.69-6.61-.58-2.08-3.06-1.95-4.63-1.24-1.53-6.76-3.17-13.51-4.19-20.37,5.24.12,10.47.11,15.71-.1,8.5,46.05,17.33,92.07,23.61,138.49,6.03,45.35,9.3,91.32,5.62,137.02-1.81,23.28-5.82,46.4-11.89,68.96-24.93-.62-50-1.99-74.43-7.38-4.06-.95-8.13-1.86-12.18-2.88-28.77-7.54-56.31-20.1-80.39-37.62-15.62-11.35-29.86-24.61-42.26-39.4l.18-1.06c9.2.73,18.18,2.99,27.22,4.69,3.22.64,6.63-2.02,6.85-5.28.48-2.86-1.4-5.84-4.2-6.6-6.63-2.04-13.54-3.02-20.4-3.94-.07-.59-.23-1.77-.3-2.36,10.32-.28,20.6,1.04,30.91,1.33,4.66.29,7.54-5.75,4.96-9.39-1.47-2.32-4.33-2.94-6.88-3.07-7.78-.55-15.58-.77-23.35-1.41,6.12-2.68,12.76-3.82,19.04-6,3.01-.96,4.46-4.65,3.48-7.53-.78-2.99-4.14-4.96-7.12-4.13-8.43,1.9-16.56,5.07-25.01,6.86-3.5-.22-6.5-2.67-10-3.19,4.31-4.53,9.29-8.56,12.62-13.92,2.39-3.9-1.11-9.46-5.65-9.03-4.1.07-5.92,4.31-8.46,6.84-6.38,6.75-13.57,13.21-22.36,16.57-16.74-29.05-28.69-60.68-37.1-93.07-8.75-33.6-13.66-68.1-16.16-102.7-.51-5.83-.64-11.69-.97-17.53-2.08-49.32.62-98.77,6.92-147.71,7.3-55.35,19.67-110.37,40.98-162.11,13.56-32.77,30.88-64.2,53.36-91.72,19.51-23.93,43.13-44.7,70.17-59.71Z"/><path class="cls-8" d="M424.92,137.82c36.64,2.16,72.96,10.83,106.69,25.34,31.53,13.62,60.63,32.81,85.63,56.37,43.63,40.92,74.33,94.23,92.91,150.78,24.06,72.84,28.93,150.87,21.68,226.9-5,56.8-13.22,113.71-30.74,168.14-9.37,28.88-21.53,57-37.81,82.69-13.68,21.63-30.39,41.45-49.96,57.98-25.79,21.93-56.46,37.74-88.79,47.51-4.07,1.21-8.16,2.36-12.26,3.44-28.26,7.25-57.44,10.57-86.57,11.22,10.79-26.66,18.13-54.62,23.08-82.93,7.75-44.87,9.58-90.56,8.63-136.02-1.03-42.08-4.37-84.07-8.78-125.91-.15-1.77-.23-3.54-.29-5.29,9.36-.38,18.92-.44,28.01,2.13,7.26,51.07,13.23,102.47,13.39,154.11.41,34.37-2.02,68.8-8.08,102.65,30.47-6.44,59.88-18.92,84.91-37.57,19.64-14.54,36.43-32.78,49.77-53.23,19.01-28.78,31.68-61.28,40.67-94.46,9-32.96,14.24-66.83,18.05-100.75,2.36-23.15,4.51-46.36,4.67-69.65.69-45.41-4.71-91.06-17.58-134.68-14-46.77-36.98-91.51-70.65-127.2-3.66-4.32-7.67-8.34-12.01-11.98-25.91-24.61-57.25-43.48-91.06-55-21.24-7.44-43.44-12.01-65.83-14.07-2.04,18.55-1.3,37.29-1.25,55.93,1.91,71.58,13.41,142.44,25.47,212.89,1.06,5.18,1.33,10.57,3.37,15.51-11.69,24.64-5.88,56.24,14.1,74.87-.66,1.17-.91,2.41-.75,3.72,3.73,23.33,8.2,46.56,11.19,70-8.93-1.85-18.1-1.88-27.17-1.51-1.9-9.16-2.17-18.56-3.52-27.8-11.42-97.03-26.39-193.86-29.84-291.63-.73-17.34-.3-34.72-.3-52.07.55-8.65.86-17.3,1.45-25.95,1.42-25.02,4.91-49.87,9.57-74.48Z"/><path class="cls-8" d="M342.82,374.94c6.36,6.33,12.7,12.74,19.92,18.1.44,16.83,2.12,33.62,2.59,50.44-3-5.48-6.26-11-10.85-15.3-3.25-.23-6.47.39-9.71.59-.04-8.21-1.14-16.35-1.34-24.55-.33-9.75-1.42-19.52-.61-29.28Z"/><path class="cls-8" d="M354.34,514.9c7.1-8.63,12.21-18.86,14.93-29.7,3.3,23.29,5.09,46.79,8.66,70.05,2.71,20.18,6.36,40.21,9.72,60.29-5.37.23-10.74.23-16.09-.04-2.91-13.34-5.49-26.77-7.86-40.22-3.84-20.01-6.19-40.26-9.36-60.38Z"/><path class="cls-9" d="M416.78,139.13c2.72-.34,5.44-.74,8.14-1.31-4.66,24.61-8.15,49.46-9.57,74.48-.59,8.65-.9,17.3-1.45,25.95,0,17.35-.43,34.73.3,52.07,3.45,97.77,18.42,194.6,29.84,291.63,1.35,9.24,1.62,18.64,3.52,27.8-4.3.26-8.58.66-12.86,1.05.01-4.54-.53-9.04-1.15-13.53-10.8-98.16-24.49-196.19-27.62-294.99-1.48-54.53.31-109.48,10.85-163.15Z"/><path class="cls-9" d="M403.82,138.64c3.14.65,6.36.87,9.57.7-5.46,10.25-8.27,21.71-10.94,32.94-12.1,49.02-15.73,99.66-16.73,149.98.05,15.66-.39,31.34.53,46.97,1.29,60.96,7.6,121.67,14.92,182.16,2.17,20.83,5.57,41.53,7.4,62.39-6.95.86-13.93,1.45-20.92,1.76-3.36-20.08-7.01-40.11-9.72-60.29-3.57-23.26-5.36-46.76-8.66-70.05,3.09-13.9,1.94-28.7-3.94-41.72-.47-16.82-2.15-33.61-2.59-50.44,2.39,1.58,4.92,3.2,7.82,3.61,2.24.34,3.92-2.33,3.13-4.3-2.62-7.81-6.91-14.96-11.58-21.7.25-11.79-.13-23.57.2-35.35.52-23.4,2.19-46.77,5.27-69.97,5.87-43.65,16.79-87.02,36.24-126.69Z"/><path class="cls-9" d="M276.09,215.84c28.09-21.18,62.22-34.19,97.24-37.37-22.65,54.69-30.48,114.36-31.1,173.2-3.93-2.12-8.09-4.5-12.71-4.26-25.25.12-50.61,6.43-75.76,1.56-5.56-.82-10.7-3.16-16.11-4.5,16.18,9.88,35.19,13.68,53.91,14.77,13.13,1.77,26.97-1.3,39.59,3.62,4.41,3.45,7.7,8.15,11.67,12.08-.81,9.76.28,19.53.61,29.28.2,8.2,1.3,16.34,1.34,24.55-23.26,1.68-46.96,1-69.63-4.89-3.82-.81-7.39-2.56-11.22-3.27-21.43,16.58-29.96,47.37-20.66,72.76,4.99,14.39,15.25,26.83,28.29,34.67-7.62-.12-15.89-.42-22.69,3.57-4.1,2.19-5.14,8.05-2.2,11.61,3.79,4.87,9.64,7.52,15.21,9.83,12.02,4.53,24.85,7.07,37.71,7.23,6.23-.05,12.84-.39,18.38-3.57,3.51-1.88,5.14-6.6,3.24-10.16-2.27-4.31-6.72-6.81-10.83-9.1,17.02-.88,33.09-9.57,43.97-22.55,3.17,20.12,5.52,40.37,9.36,60.38,2.37,13.45,4.95,26.88,7.86,40.22-15.99-.75-32.29-5.17-44.96-15.29-7.01-5.34-12.46-12.32-17.45-19.49-2.63-4.02-9.38.33-6.69,4.44,8.19,13.56,20.47,24.77,35.03,31.13,11.29,5,23.66,7.09,35.93,7.61,1.02,6.86,2.66,13.61,4.19,20.37-8.78,3.58-18.69,1.64-27.18-1.84-3.85-1.42-7.15-3.94-10.87-5.62-2.73-.37-4.67,2.76-3.63,5.16,1.11,2.52,3.96,3.46,6.23,4.67,10.72,5.52,23.49,8.5,35.39,5.48.41.1,1.22.28,1.63.37,8.81,39.87,17.47,79.8,23.95,120.13,5.9,36.92,9.91,74.27,9.21,111.7-13.27.65-26.57-.1-39.82-.99-39.04-2.72-78.06-14.17-110.36-36.7-32.59-22.14-57.32-54.41-74.13-89.76-15.12-31.87-24.54-66.19-30.06-100.96-7.99-50.54-8.22-102.05-3.93-152.95,4.83-55.57,14.99-111.09,34.96-163.33,11.74-30.49,27.19-59.73,47.59-85.35,11.58-14.3,24.78-27.36,39.5-38.44Z"/><path class="cls-9" d="M422.6,178.34c22.39,2.06,44.59,6.63,65.83,14.07,33.81,11.52,65.15,30.39,91.06,55,4.34,3.64,8.35,7.66,12.01,11.98,33.67,35.69,56.65,80.43,70.65,127.2,12.87,43.62,18.27,89.27,17.58,134.68-.16,23.29-2.31,46.5-4.67,69.65-3.81,33.92-9.05,67.79-18.05,100.75-8.99,33.18-21.66,65.68-40.67,94.46-13.34,20.45-30.13,38.69-49.77,53.23-25.03,18.65-54.44,31.13-84.91,37.57,6.06-33.85,8.49-68.28,8.08-102.65-.16-51.64-6.13-103.04-13.39-154.11,5.37,1.49,10.58,3.81,14.86,7.45,1.59,1.14,3.12,3.03,5.33,2.58,3.28-.34,4.71-4.99,2.13-7.09-6.55-6.25-15.16-9.98-23.94-11.85-2.99-23.44-7.46-46.67-11.19-70-.16-1.31.09-2.55.75-3.72,11.24,10.98,26.56,17.72,42.27,18.4,2.13.11,4.26.27,6.4.48-3.07,2.26-6.33,4.68-8.01,8.21-1.74,3.55-.13,8.14,3.37,9.94,5.49,3.07,12.07,3.01,18.19,2.82,14.52-.95,29-4.58,41.98-11.25,4.83-2.78,10.41-6.06,11.95-11.81,1.08-4.41-2.47-8.21-6.43-9.42-8.29-2.71-17.18-1.6-25.67-.61,23.76-17.83,33.69-51.93,22.67-79.6-3.7-9.41-9.91-17.75-17.7-24.18-2.37-2.57-5.89-.25-8.69.19-27.24,6.88-55.91,10.65-83.83,5.76-4.24,4.89-7.86,10.32-10.6,16.2-2.04-4.94-2.31-10.33-3.37-15.51-12.06-70.45-23.56-141.31-25.47-212.89-.05-18.64-.79-37.38,1.25-55.93ZM538.93,360.83c-10.25,4.83-19.53,11.68-30.33,15.37-13.25,4.3-27.28,4.83-41.08,5.54-6.89.23-13.91-.63-20.69.98-1.36.44-3.23.94-3.39,2.65.21,1.79,1.55,3.23,3.21,3.82,12.84,5.51,26.83,8.46,40.82,8.11,14.8-.22,29.64-4.79,41.53-13.71,7.37-5.17,12.99-13.23,22.02-15.7,4.9-.8,9.9.18,14.62,1.53,10.39,2.98,19.29,9.38,29,13.87-8.02-7.84-16.82-15.12-26.79-20.34-8.78-4.62-19.64-6.31-28.92-2.12Z"/><path class="cls-9" d="M435.8,619.01c4.17-.41,8.35-.77,12.54-.97.06,1.75.14,3.52.29,5.29,4.41,41.84,7.75,83.83,8.78,125.91.95,45.46-.88,91.15-8.63,136.02-4.95,28.31-12.29,56.27-23.08,82.93-6.41.12-12.82.05-19.23.08,6.07-22.56,10.08-45.68,11.89-68.96,3.68-45.7.41-91.67-5.62-137.02-6.28-46.42-15.11-92.44-23.61-138.49,6.89-.46,13.78-1.08,20.65-1.8,5.76,43,10.68,86.13,14.36,129.37,2.41,32.91,4.57,65.87,4.21,98.89-.14,31.94-1.89,64.04-8.35,95.39-1.46,7.25-3.52,14.37-5.14,21.59,2.51.23,5.09.77,7.61.19,1.03-.84,1.24-2.26,1.78-3.39,5.41-14.79,9.29-30.08,12.71-45.43,2.84-13.39,6.86-26.61,7.83-40.33,1.61-19.29,2.88-38.62,2.95-57.98.51-37.59-.78-75.18-3.66-112.66-2.23-29.59-4.82-59.16-8.28-88.63Z"/><path class="cls-7" d="M413.39,139.34c.85-.05,2.54-.15,3.39-.21-10.54,53.67-12.33,108.62-10.85,163.15,3.13,98.8,16.82,196.83,27.62,294.99.62,4.49,1.16,8.99,1.15,13.53-8.72.92-17.42,2.04-26.13,2.98-1.83-20.86-5.23-41.56-7.4-62.39-7.32-60.49-13.63-121.2-14.92-182.16-.92-15.63-.48-31.31-.53-46.97,1-50.32,4.63-100.96,16.73-149.98,2.67-11.23,5.48-22.69,10.94-32.94Z"/><path class="cls-7" d="M409.78,622c8.67-.98,17.33-2.15,26.02-2.99,3.46,29.47,6.05,59.04,8.28,88.63,2.88,37.48,4.17,75.07,3.66,112.66-.07,19.36-1.34,38.69-2.95,57.98-.97,13.72-4.99,26.94-7.83,40.33-3.42,15.35-7.3,30.64-12.71,45.43-.54,1.13-.75,2.55-1.78,3.39-2.52.58-5.1.04-7.61-.19,1.62-7.22,3.68-14.34,5.14-21.59,6.46-31.35,8.21-63.45,8.35-95.39.36-33.02-1.8-65.98-4.21-98.89-3.68-43.24-8.6-86.37-14.36-129.37Z"/><path class="cls-3" d="M926.1,279.88c2.02-2.43,3.83-5.95,7.52-5.78,4.37-.15,7.72,5.05,5.56,8.93-3.15,5.37-8.02,9.39-11.93,14.16,4.09.47,7.69,4.51,11.87,2.54,7.3-2.23,14.53-4.68,21.83-6.93,2.68-1.02,5.97-.05,7.49,2.43,1.95,2.84.92,7.22-2.19,8.77-6.48,2.65-13.55,3.82-19.85,6.88,8.73.12,17.47.24,26.19.81,2.91.08,5.46,2.62,5.69,5.51.46,3.35-2.36,6.8-5.78,6.79-10.25-.16-20.53-1.1-30.76-.5.01.55.04,1.66.05,2.21,5.98.52,11.89,1.58,17.78,2.69,2.18.49,4.72.87,6.09,2.88,2.35,2.9,1.25,7.73-2.15,9.3-2.85,1.45-6.03-.09-8.93-.48-9.96-1.73-19.99-3.13-30.07-3.84-5.78.36-11.48-.7-16.99-2.37-11.58,58.55-23.47,117.04-35.12,175.57-.31,2.72-2.11,5.37-4.93,5.88-44.05,10.74-88.18,21.15-132.21,31.96.34-4.51-.48-9.04.38-13.51,3.39.42,6.5-1.26,9.79-1.78,38.39-9.3,76.85-18.38,115.2-27.84,10.26-49.19,19.82-98.59,29.81-147.86,1.89-10.35,4.52-20.61,5.94-31-3.34-6.1-3.65-14.04.27-19.95,1.2-1.79,2.11-3.79,3.56-5.42,2.47-1.63,5.44-2.31,7.92-3.96,6.84-4.29,12.79-9.91,17.97-16.09Z"/><path class="cls-3" d="M237.65,344.47c5.41,1.34,10.55,3.68,16.11,4.5,25.15,4.87,50.51-1.44,75.76-1.56,4.62-.24,8.78,2.14,12.71,4.26,7.83,4.89,14.43,11.56,19.88,18.98,4.67,6.74,8.96,13.89,11.58,21.7.79,1.97-.89,4.64-3.13,4.3-2.9-.41-5.43-2.03-7.82-3.61-7.22-5.36-13.56-11.77-19.92-18.1-3.97-3.93-7.26-8.63-11.67-12.08-12.62-4.92-26.46-1.85-39.59-3.62-18.72-1.09-37.73-4.89-53.91-14.77Z"/><path class="cls-3" d="M538.93,360.83c9.28-4.19,20.14-2.5,28.92,2.12,9.97,5.22,18.77,12.5,26.79,20.34-9.71-4.49-18.61-10.89-29-13.87-4.72-1.35-9.72-2.33-14.62-1.53-9.03,2.47-14.65,10.53-22.02,15.7-11.89,8.92-26.73,13.49-41.53,13.71-13.99.35-27.98-2.6-40.82-8.11-1.66-.59-3-2.03-3.21-3.82.16-1.71,2.03-2.21,3.39-2.65,6.78-1.61,13.8-.75,20.69-.98,13.8-.71,27.83-1.24,41.08-5.54,10.8-3.69,20.08-10.54,30.33-15.37Z"/><path class="cls-3" d="M263.92,420.61c3.83.71,7.4,2.46,11.22,3.27,22.67,5.89,46.37,6.57,69.63,4.89,3.24-.2,6.46-.82,9.71-.59,4.59,4.3,7.85,9.82,10.85,15.3,5.88,13.02,7.03,27.82,3.94,41.72-2.72,10.84-7.83,21.07-14.93,29.7-10.88,12.98-26.95,21.67-43.97,22.55-12.15-5.67-25.48-8.49-38.82-9.41-13.04-7.84-23.3-20.28-28.29-34.67-9.3-25.39-.77-56.18,20.66-72.76ZM246.36,474.26c.68,18.12,10.4,35.56,25.34,45.8,11.74,8.3,26.54,11.63,40.76,10.39,11.13-1.06,21.77-5.92,30.14-13.29,14.82-12.99,23.2-33.2,21.35-52.88-.96-10.73-5.32-21.07-12.26-29.3-10.7,1.16-21.48,1.16-32.22,1.56,4.72,2.76,8.62,6.86,11.26,11.64,8.28,15.13,2.77,36.43-12.23,45.18-15.35,9.03-37.3,3.89-46.89-11.16-10.54-16.27-3.4-41.45,14.89-48.71-7.04-1.73-14.19-3.06-21.05-5.44-12.76,11.61-19.99,28.97-19.09,46.21ZM296.72,440.47c-3.69,1.53-4.35,7.49-.81,9.56,3.26,2.45,8.79.59,9.01-3.76.91-4.4-4.47-7.56-8.2-5.8ZM278.02,450.93c-6.07,2.97-6.57,13.08-.25,16.09,5.53,3.59,14.07.13,14.34-6.81,1.4-7.44-7.91-12.59-14.09-9.28Z"/><path class="cls-3" d="M544.62,440.71c2.8-.44,6.32-2.76,8.69-.19,7.79,6.43,14,14.77,17.7,24.18,11.02,27.67,1.09,61.77-22.67,79.6-12.31,2.2-24.53,5.77-35.38,12.12-2.14-.21-4.27-.37-6.4-.48-15.71-.68-31.03-7.42-42.27-18.4-19.98-18.63-25.79-50.23-14.1-74.87,2.74-5.88,6.36-11.31,10.6-16.2,27.92,4.89,56.59,1.12,83.83-5.76ZM517.71,453.52c4.8,1.94,9.04,5.19,12.29,9.21,10.8,13.52,8.93,35.54-4.42,46.71-14.3,12.09-38.47,9.82-49.82-5.24-11.22-14.75-7.51-38.26,7.97-48.62-6.79.14-13.55-1.02-20.26-1.36-10.79,13.58-14.82,32.16-10.9,49.04,3.4,15.38,13.34,29.12,26.8,37.26,11.33,6.99,25.06,9.83,38.26,8.16,13.27-1.14,25.9-7.6,34.76-17.53,12.71-14.08,18.5-34.12,15.28-52.82-2.03-12.26-8.45-23.72-17.95-31.75-10.52,3-21.34,4.71-32.01,6.94ZM496.83,460.73c-3.83,1.89-3.6,8.42.51,9.85,3.65,1.82,8.65-1.05,8.15-5.32.09-4.24-5.25-6.52-8.66-4.53ZM482.95,472.86c-7.22,1.35-9.14,12.13-3.22,16.17,5.54,4.36,15.57.89,15.4-6.74.93-6.54-6.31-11.24-12.18-9.43Z"/><path class="cls-3" d="M302.46,585.16c-2.69-4.11,4.06-8.46,6.69-4.44,4.99,7.17,10.44,14.15,17.45,19.49,12.67,10.12,28.97,14.54,44.96,15.29,5.35.27,10.72.27,16.09.04,6.99-.31,13.97-.9,20.92-1.76,8.71-.94,17.41-2.06,26.13-2.98,4.28-.39,8.56-.79,12.86-1.05,9.07-.37,18.24-.34,27.17,1.51,8.78,1.87,17.39,5.6,23.94,11.85,2.58,2.1,1.15,6.75-2.13,7.09-2.21.45-3.74-1.44-5.33-2.58-4.28-3.64-9.49-5.96-14.86-7.45-9.09-2.57-18.65-2.51-28.01-2.13-4.19.2-8.37.56-12.54.97-8.69.84-17.35,2.01-26.02,2.99-6.87.72-13.76,1.34-20.65,1.8-5.24.21-10.47.22-15.71.1-12.27-.52-24.64-2.61-35.93-7.61-14.56-6.36-26.84-17.57-35.03-31.13Z"/><path class="cls-3" d="M3.94,750.65c36.9-41.15,73.59-82.5,110.57-123.58.33,5.84.46,11.7.97,17.53-27.17,30.13-54.09,60.49-81.16,90.71-6.2,6.79-12.12,13.84-18.5,20.46,9.42,6.47,19.4,12.12,29.05,18.28,39.2,24.24,78.31,48.63,117.57,72.78,1.47-2.68,3.06-5.67,6.3-6.46,8.79-3.36,15.98-9.82,22.36-16.57,2.54-2.53,4.36-6.77,8.46-6.84,4.54-.43,8.04,5.13,5.65,9.03-3.33,5.36-8.31,9.39-12.62,13.92,3.5.52,6.5,2.97,10,3.19,8.45-1.79,16.58-4.96,25.01-6.86,2.98-.83,6.34,1.14,7.12,4.13.98,2.88-.47,6.57-3.48,7.53-6.28,2.18-12.92,3.32-19.04,6,7.77.64,15.57.86,23.35,1.41,2.55.13,5.41.75,6.88,3.07,2.58,3.64-.3,9.68-4.96,9.39-10.31-.29-20.59-1.61-30.91-1.33.07.59.23,1.77.3,2.36,6.86.92,13.77,1.9,20.4,3.94,2.8.76,4.68,3.74,4.2,6.6-.22,3.26-3.63,5.92-6.85,5.28-9.04-1.7-18.02-3.96-27.22-4.69l-.18,1.06c-.29-.34-.86-1.03-1.15-1.37-6.71-1.46-13.77-.28-20.33-2.62-8.13-2.24-16.06-8.52-16.71-17.48-50.4-31.54-101.05-62.67-151.55-94.05-2.81-1.92-6.92-3.28-7.38-7.18-.6-3.18,1.94-5.51,3.85-7.64Z"/><path class="cls-3" d="M335.93,641.97c-1.04-2.4.9-5.53,3.63-5.16,3.72,1.68,7.02,4.2,10.87,5.62,8.49,3.48,18.4,5.42,27.18,1.84,1.57-.71,4.05-.84,4.63,1.24.84,3.2-2.31,5.26-4.69,6.61-11.9,3.02-24.67.04-35.39-5.48-2.27-1.21-5.12-2.15-6.23-4.67Z"/><path class="cls-3" d="M512.27,956.97c4.1-1.08,8.19-2.23,12.26-3.44,1.92,61.25,3.73,122.5,5.59,183.76.21,2.17-.4,4.61.78,6.61,11.25-6.38,24.7-9.19,37.51-7.04,18.38,3.2,35.78,16.28,41.25,34.52,1.78,4.65-3.67,9.46-8.15,7.44-26.21-8.01-52.41-16.05-78.62-24.08-2.87-.66-4.96-3.38-4.83-6.32-1.93-63.82-3.88-127.63-5.79-191.45Z"/><path class="cls-3" d="M319.86,958.01c4.05,1.02,8.12,1.93,12.18,2.88-3.4,62.85-7.08,125.68-10.63,188.51.08,3.58-3.31,6.53-6.84,6.14-25.02.08-50.05.13-75.07.2-2.98-.04-5.99.23-8.94-.21-3.39-.88-5.51-5-4.02-8.21,3.86-7.86,11.3-13.22,19.06-16.84,13.65-6.39,30.01-7.06,43.91-1.05,7.49,3.04,13.93,8.05,19.87,13.45,3.49-61.63,6.99-123.25,10.48-184.87Z"/><path class="cls-13" d="M246.36,474.26c-.9-17.24,6.33-34.6,19.09-46.21,6.86,2.38,14.01,3.71,21.05,5.44-18.29,7.26-25.43,32.44-14.89,48.71,9.59,15.05,31.54,20.19,46.89,11.16,15-8.75,20.51-30.05,12.23-45.18-2.64-4.78-6.54-8.88-11.26-11.64,10.74-.4,21.52-.4,32.22-1.56,6.94,8.23,11.3,18.57,12.26,29.3,1.85,19.68-6.53,39.89-21.35,52.88-8.37,7.37-19.01,12.23-30.14,13.29-14.22,1.24-29.02-2.09-40.76-10.39-14.94-10.24-24.66-27.68-25.34-45.8Z"/><path class="cls-13" d="M296.72,440.47c3.73-1.76,9.11,1.4,8.2,5.8-.22,4.35-5.75,6.21-9.01,3.76-3.54-2.07-2.88-8.03.81-9.56Z"/><path class="cls-13" d="M517.71,453.52c10.67-2.23,21.49-3.94,32.01-6.94,9.5,8.03,15.92,19.49,17.95,31.75,3.22,18.7-2.57,38.74-15.28,52.82-8.86,9.93-21.49,16.39-34.76,17.53-13.2,1.67-26.93-1.17-38.26-8.16-13.46-8.14-23.4-21.88-26.8-37.26-3.92-16.88.11-35.46,10.9-49.04,6.71.34,13.47,1.5,20.26,1.36-15.48,10.36-19.19,33.87-7.97,48.62,11.35,15.06,35.52,17.33,49.82,5.24,13.35-11.17,15.22-33.19,4.42-46.71-3.25-4.02-7.49-7.27-12.29-9.21Z"/><path class="cls-13" d="M278.02,450.93c6.18-3.31,15.49,1.84,14.09,9.28-.27,6.94-8.81,10.4-14.34,6.81-6.32-3.01-5.82-13.12.25-16.09Z"/><path class="cls-13" d="M496.83,460.73c3.41-1.99,8.75.29,8.66,4.53.5,4.27-4.5,7.14-8.15,5.32-4.11-1.43-4.34-7.96-.51-9.85Z"/><path class="cls-13" d="M482.95,472.86c5.87-1.81,13.11,2.89,12.18,9.43.17,7.63-9.86,11.1-15.4,6.74-5.92-4.04-4-14.82,3.22-16.17Z"/><path class="cls-12" d="M248.86,531.61c6.8-3.99,15.07-3.69,22.69-3.57,13.34.92,26.67,3.74,38.82,9.41,4.11,2.29,8.56,4.79,10.83,9.1,1.9,3.56.27,8.28-3.24,10.16-5.54,3.18-12.15,3.52-18.38,3.57-12.86-.16-25.69-2.7-37.71-7.23-5.57-2.31-11.42-4.96-15.21-9.83-2.94-3.56-1.9-9.42,2.2-11.61Z"/><path class="cls-12" d="M548.34,544.3c8.49-.99,17.38-2.1,25.67.61,3.96,1.21,7.51,5.01,6.43,9.42-1.54,5.75-7.12,9.03-11.95,11.81-12.98,6.67-27.46,10.3-41.98,11.25-6.12.19-12.7.25-18.19-2.82-3.5-1.8-5.11-6.39-3.37-9.94,1.68-3.53,4.94-5.95,8.01-8.21,10.85-6.35,23.07-9.92,35.38-12.12Z"/><path class="cls-6" d="M695.96,226.79l10.2,27.42s-77.01,26.86-285.31,26.86-261.61-38.24-261.61-38.24l7.11-16.05c-22.56.5-158.1,4.9-158.1,35.35,0,33.34,164.28,61.89,424.42,65.6,260.11,3.69,427.57-26.43,427.57-62.4s-164.28-38.55-164.28-38.55Z"/><path class="cls-14" d="M693.69,226.89c3.18,8.49,6.27,16.93,9.47,25.42.85,2.4,1.67,1.51-2.75,2.8-15.48,4.5-31.92,7.53-48.13,10.19-36.22,5.95-73.27,9.34-110.2,11.67-57.88,3.62-116.32,4.54-174.32,2.57-58.36-2-119.64-6.87-174-23.48-9.89-3.05-19.73-6.61-28.48-11.21-1.25-.69-2.58-1.41-3.77-2.23-.99-.66,6.01-13.52,7.03-15.76.31-.75-1.73-.71-2.27-.71-26.05.58-52.15,2.27-77.86,5.23-24.91,2.82-59.12,6.41-76.92,20.81-11.65,9.47-2.55,20.29,8.76,26.9,18.62,10.92,43.79,16.47,66.44,21.2,88.18,18.48,182.67,23.25,273.94,26.41,110.43,3.84,222.33,3.48,331.93-7.99,35.83-3.74,71.85-8.78,106.18-17.33,19.61-4.87,41.18-11.08,55.44-22.36,39.2-31.07-58.47-45.21-82.56-47.97-24.77-2.83-50.03-4.51-75.14-4.9-1.9-.03-4.16,1.28-1.05,1.31,18.51.3,37.05,1.45,55.44,3.03,29.82,2.53,62.81,5.79,89.11,16.93,17.34,7.33,23.61,20.06,9.81,31.47-15.56,12.83-42.12,19-63.83,23.93-38.38,8.75-78.6,13.45-118.42,17.01-54.08,4.83-108.64,6.84-163.09,7.43-112.41,1.21-226.61-2.44-337.63-15.86-35.2-4.24-70.72-9.6-104.28-18.67-17.23-4.65-39.85-11.12-49.37-23.45-13.41-17.33,22.7-27.23,39.45-30.87,31.24-6.81,64.62-9.02,97.13-10.39,5.56-.26,11.11-.43,16.64-.56-.77-.26-1.53-.5-2.24-.73-2.38,5.36-4.73,10.72-7.11,16.09-.08.1-.08.23.06.33,4.9,3.51,11.45,6.08,17.46,8.44,19.7,7.73,41.44,12.69,63.07,16.68,40.02,7.33,81.37,10.61,122.5,12.33,56.69,2.37,113.86,1.38,170.46-1.62,45.35-2.47,90.87-6.57,135-14.53,14.14-2.56,29.05-5.26,42.26-9.83.2-.07.71-.26.57-.5-3.37-9.14-6.74-18.28-10.18-27.46-.34-.98-4.85-.52-4.54.23Z"/><path class="cls-6" d="M693.63,214.69c-4.05-20.91-13.41-66.85-27.15-121.76-18.85-75.36-54.22-95.98-133.21-87.27-79.02,8.75-87.27,12.69-179.22-1.57-91.92-14.27-115.53,18.25-134.38,69.02-12.9,34.66-32.94,93.68-44.36,127.61,25.37,12.66,97.3,38.7,261.07,38.7s231.48-16.34,257.25-24.73Z"/><path class="cls-14" d="M695.87,214.92c-6.29-32.52-13.43-64.93-21.14-97.29-7.28-30.55-12.61-65.11-38.77-90.85-42.97-42.22-126.22-15.75-184.55-14.05-44.1,1.32-85.66-10.55-129.22-12.55-32.03-1.49-60.91,6.14-79.13,25.74-20.15,21.7-26.84,49.82-35.66,74.68-11.79,33.24-23.1,66.52-34.33,99.86-.03.27.4.43.59.53,46.17,22.95,106.91,30.67,161.31,35.25,55.5,4.64,111.62,4.6,167.37,2.89,41.98-1.28,84.04-4.01,125.36-9.7,23.02-3.15,46.34-7.27,67.8-14.2,1.53-.5-2.64-1.44-3.71-1.06-18.51,5.96-38.35,9.68-58.13,12.69-40.62,6.25-82.23,9.02-123.64,10.56-95.07,3.62-197.95,3.69-288.46-20.81-10.57-2.86-20.89-6.22-30.84-10.13-3.32-1.32-6.6-2.7-9.78-4.18-2.12-.98-3.49-1.05-2.83-2.95,1.39-4.08,2.75-8.16,4.11-12.2,11.68-34.53,23.38-69.05,35.88-103.45,8.81-24.31,17.35-52.71,44.81-69.94,36.25-22.69,89.54-8.58,130.72-3.36,35.52,4.55,68.82,4.05,104.34.07,36.82-4.11,79.98-12.65,114.06,2.83,31.97,14.5,42.69,45.91,49.86,70.73,10.97,37.85,18.54,76.42,26.39,114.7,1.05,5.26,2.1,10.49,3.12,15.71.23,1.09,4.65,1.22,4.48.49Z"/><path class="cls-4" d="M693.63,214.69c-25.77,8.39-96.57,24.73-257.25,24.73s-235.71-26.04-261.07-38.7c-3.37,10.06-6.01,17.92-7.45,22.26-.79,2.46-8.62,19.86-8.62,19.86,0,0,53.37,38.24,261.61,38.24s285.31-26.86,285.31-26.86l-10.2-27.42s-.79-4.34-2.32-12.1Z"/><path class="cls-10" d="M691.87,214.04c-18.51,5.94-38.41,9.7-58.13,12.71-40.59,6.25-82.23,9.02-123.64,10.59-94.81,3.62-197.1,3.69-287.46-20.42-15.93-4.24-31.57-9.44-45.6-16.4-.57-.3-3.57-1.15-3.91-.23-4.79,14.27-9.84,28.22-16.1,42.16,0,.17.06.3.17.4,4.9,3.45,11.31,6.01,17.23,8.35,18.99,7.56,39.97,12.5,60.85,16.48,39.12,7.43,79.59,10.84,119.84,12.76,56.8,2.63,114.11,1.74,170.83-1.09,46.63-2.33,93.45-6.44,138.86-14.5,14.48-2.57,29.68-5.26,43.14-9.96.31-.1.45-.2.39-.43-4.87-13.24-9.86-26.01-12.5-39.56-.2-.88-4.57-1.44-4.39-.43,1.84,9.48,4.48,17.99,7.91,27.2,1.53,4.02,3,8.02,4.48,12,.06.1.82-.16-.79.33-11.68,3.72-24.21,6.22-36.56,8.56-84.49,15.97-174.74,18.41-261.59,17.72-70.77-.56-147.67-3.99-213.54-24.69-9.95-3.16-20.01-6.78-28.51-11.75-2.97-1.67.08-3.78,1.42-6.87,5.27-11.84,9.24-23.77,13.29-35.87-1.3-.07-2.61-.13-3.94-.2,45.61,22.66,105.24,30.52,158.98,35.19,56.21,4.87,113.15,4.83,169.67,3.12,41.98-1.28,84.04-3.94,125.37-9.67,23.01-3.15,46.34-7.23,67.86-14.17,1.56-.5-2.53-1.71-3.6-1.31Z"/><path class="cls-14" d="M376.66,7.45s1.7.29,4.71.81c1.47.26,3.26.6,5.33.99,2.07.36,4.39.86,6.94,1.24,5.1.79,10.91,2.02,17.32,2.93,3.18.53,6.41,1.02,9.75,1.55,3.34.55,6.77.91,10.18,1.38,3.37.5,6.8.99,10.2,1.28,3.37.33,6.69.76,9.89,1.09,3.23.23,6.41.46,9.32.69,2.95.27,5.76.33,8.36.36,2.64.07,4.96.13,7.11.22,2.13-.09,4-.19,5.47-.25,3.03-.16,4.82-.2,4.82-.2,0,0-1.64.33-4.65.78-1.53.23-3.35.53-5.5.86-2.12.13-4.53.3-7.2.39-2.66.2-5.56.33-8.59.2-3.06-.1-6.27-.13-9.58-.26-3.29-.26-6.72-.53-10.15-.83-3.49-.26-6.95-.75-10.4-1.21-3.49-.53-6.95-.92-10.29-1.52-3.4-.62-6.66-1.25-9.84-1.84-6.38-1.18-12.19-2.73-17.15-3.91-2.49-.56-4.68-1.29-6.63-1.88-1.96-.55-3.66-1.08-5.07-1.51-2.81-.83-4.37-1.38-4.37-1.38Z"/><g class="cls-1"><path class="cls-11" d="M666.48,92.94c-18.85-75.36-54.22-95.98-133.21-87.27-79.02,8.75-87.27,12.69-179.22-1.57-90.65-14.07-114.85,17.36-133.61,66.95.39-.69,30.39-57.45,68.79-61.39,73.04-7.53,115.76,27.94,200.42,16.11,20.8-2.9,25.14-8.18,5.87-7.93-19.22.26,9.07-7.13,44.84-9.27,35.74-2.1,77.78,2.43,75.45,43.41-2.35,40.97-54.93,147.96-218.1,167.72-174.85,21.22-216.55-38.6-196.9-93.62-9.35,26.9-18.82,54.95-25.48,74.65,25.37,12.66,97.3,38.7,261.07,38.7s231.48-16.34,257.25-24.73c-4.05-20.91-13.41-66.85-27.15-121.76Z"/></g><g class="cls-1"><path class="cls-11" d="M695.96,226.79l10.2,27.42s-77.01,26.86-285.31,26.86-261.61-38.24-261.61-38.24l7.11-16.05c-11.06.26-49.15,1.42-85.2,6.16,2.84-.27,70.92-6.61,52.47,6.47-18.88,13.35,40.67,44.29,244.32,49.85,203.68,5.56,282.05-10.19,310.93-14.96,28.91-4.73,7.85,57.19-301.58,47.09C114.28,312.49-18.79,273.52,23.24,246.52c-9.27,4.25-14.99,9.38-14.99,15.62,0,33.34,164.28,61.89,424.42,65.6,260.11,3.69,427.57-26.43,427.57-62.4s-164.28-38.55-164.28-38.55Z"/></g><g class="cls-2"><path class="cls-5" d="M695.96,226.79s-.79-4.34-2.32-12.1c-25.77,8.39-96.57,24.73-257.25,24.73s-235.71-26.04-261.07-38.7c-1.9,5.72-3.6,10.76-4.93,14.83,9.27-8.03,26.1-1.51,55.55,7.73,33.87,10.65,165.76,26.37,267.25,19.56,100.99-6.74,61.88,32.16-91.97,32.56-153.82.38-241.63-29.18-234.86-48.61-2.55,5.89-7.11,16.05-7.11,16.05,0,0,53.37,38.24,261.61,38.24s285.31-26.86,285.31-26.86l-10.2-27.42Z"/></g><path class="cls-15" d="M97.05,233.74s-69.36,6.34-68.39,22.22c1.02,15.85,84.32,51.99,361.33,61.1,0,0-214.59-11.81-290.86-46.24-63.86-28.8-2.07-37.08-2.07-37.08Z"/><path class="cls-15" d="M211.79,120.06c10.97-30.06,42.46-112.3,103.77-105.95,61.31,6.37,114.34,20.39,165.44,16.67,0,0-35.77,11.37-106.88,3.19-71.14-8.22-93.96,3.16-125.36,47.05-31.43,43.9-45.04,61.29-36.96,39.03Z"/><g class="cls-1"><path class="cls-11" d="M664.12,84.25c4.76,41.18,8.79,108.38-76.05,129.26-101.05,24.86-233.36,23.21-238.54,23.14,25.6,1.72,54.39,2.76,86.85,2.76,160.68,0,231.48-16.34,257.25-24.73-4.05-20.91-13.41-66.85-27.15-121.76-.76-2.99-1.53-5.86-2.35-8.69Z"/></g><g class="cls-1"><path class="cls-11" d="M860.24,265.34c0-35.98-164.28-38.55-164.28-38.55l.39,1.12c92.51,7.76,148.21,33.44,83.9,60.17-65.62,27.26-216.26,38.15-225.87,38.81,189.45-5.66,305.86-31.57,305.86-61.56Z"/></g></g></g></g></svg>