<?xml version="1.0" encoding="UTF-8"?><svg xmlns="http://www.w3.org/2000/svg" viewBox="0 0 807.98 1105.42"><defs><style>.cls-1{fill:#c6a049;}.cls-1,.cls-2,.cls-3,.cls-4,.cls-5,.cls-6,.cls-7,.cls-8,.cls-9,.cls-10,.cls-11,.cls-12,.cls-13,.cls-14,.cls-15,.cls-16,.cls-17,.cls-18,.cls-19,.cls-20,.cls-21,.cls-22{stroke-width:0px;}.cls-23{opacity:.7;}.cls-23,.cls-24{mix-blend-mode:multiply;}.cls-2{fill:#000;}.cls-3{fill:#422a05;}.cls-4{fill:#521919;}.cls-5{fill:#2d1d01;}.cls-6{fill:#807022;}.cls-7{fill:#ba9741;}.cls-8{fill:#efd9c2;}.cls-25{isolation:isolate;}.cls-9{fill:#8c604f;}.cls-10{fill:#806f21;}.cls-11{fill:#59342e;}.cls-12{fill:#754e3f;}.cls-13{fill:#1c1203;}.cls-14{fill:#c13d3d;}.cls-24{opacity:.6;}.cls-15{fill:#ac8a39;}.cls-16,.cls-22{fill:#e5c5a8;}.cls-17{fill:#fff;}.cls-18{fill:#1a0e26;}.cls-19{fill:#fabd4d;}.cls-20{fill:#ffefa1;}.cls-21{fill:#a38871;}.cls-22{mix-blend-mode:screen;}</style></defs><g class="cls-25"><g id="Capa_2"><g id="Layer_1"><path class="cls-2" d="M756.77,52.56c1.81-5.26,10.63-1.99,8.3,3.27-1.91,5.26-4.66,10.19-7.69,14.88,3.94-.2,7.92.12,11.72,1.26,6.83-4.07,13.29-8.74,20.13-12.76,4.16-2.48,8.67,3.7,5.28,6.99-5.82,4.31-12.23,7.8-18.12,11.99-.06.4-.19,1.19-.26,1.59,9.02-1.89,17.85-4.64,26.92-6.28,3.18-.58,5.88,3.11,4.62,6.02-.63,1.91-2.6,2.78-4.43,3.1-8.25,1.73-16.38,4.01-24.6,5.87-.25,1.57-.46,3.14-.64,4.71,6.65-.78,13.31-1.95,20.03-1.91,3.47.15,5.18,4.91,2.82,7.37-1.64,2.03-4.51,1.49-6.79,1.82-8.08.67-16.17,1.65-24.11,3.23-7.28,3.73-15.63,4.41-23.62,3.24.69,64.99.84,129.99,1.38,194.98.16,2.07-.38,4.19-2,5.58-31.78,32.13-63.51,64.31-95.32,96.41-1.61-3.47-3.29-6.9-4.97-10.33,30.82-30.58,61.16-61.69,91.7-92.57-.5-62.39-.81-124.77-1.24-187.16-.17-4.88.18-9.79-.24-14.65-2.21-5.1-3.41-11.22-.56-16.33,2.03-4.49,6.88-6.43,9.81-10.17,4.97-6.06,8.87-12.93,11.88-20.15Z"/><path class="cls-2" d="M474.44,212.2c17.27.29,34.59,4.66,49.53,13.43-12.43-3.36-25.46-5.16-38.31-4.22-15.59,1.82-30.99,6.1-44.62,14.04-7.22,4.02-13.91,8.87-20.59,13.69-1.49,1.52-4.26.87-4.57-1.33,1.19-5.34,4.47-9.95,7.73-14.25,7.77-9.26,18.57-15.71,30.11-19.09,6.7-2.05,13.78-2,20.72-2.27Z"/><path class="cls-2" d="M429.74,317.29c7.52-28.97,39.6-47.66,68.61-42.32-1.87,1.62-3.78,3.19-5.62,4.84-16.7-1.36-33.79,5.29-45.37,17.35-7.51,7.75-12.51,17.99-13.51,28.77-1.29,13.02,2.8,26.14,10.04,36.9-1.26,1.34-2.63,2.57-4.07,3.7-10.07-14-14.4-32.39-10.08-49.24Z"/><path class="cls-2" d="M286.38,319.2c6.11-2.98,12.86-5.67,19.78-5.08,2.99.59,1.21,4.29-.65,5.23-8.31,5.88-16.17,12.44-23.03,19.98-16.32,17.55-27.1,40.47-28.63,64.51-.44.9-.92,1.79-1.41,2.67-1.11-5.46-1.52-11.05-1.44-16.61.3-11.72,1.49-23.58,5.55-34.65,5.21-15.01,15.37-28.87,29.83-36.05Z"/><path class="cls-2" d="M294.08,390.13c8.81-30.12,44.35-48.06,74.07-39.12,3.75,1.21,7.39,2.8,10.86,4.69,3.18,1.85,6.2,3.98,9,6.38,6.64,6.17,12.07,13.68,15.5,22.09-1.96.14-3.92.28-5.88.33-6.03-13.23-17.41-24.35-31.61-28.28-25.54-7.38-55.1,6.88-65.38,31.38-2.14.97-4.35,1.75-6.56,2.53Z"/><path class="cls-2" d="M498.52,444.33c10.39-10.09,18.84-21.9,27.37-33.54,8.26,13.36,10.86,29.52,10.26,45.02-.77,17.49-6.46,35.43-18.81,48.23-10.2,10.77-24.82,16.2-39.39,17.38-4.97.41-9.97.45-14.94.26-7.11-.45-14.15-1.61-21.09-3.17-8.68-2.61-16.92-6.53-24.81-10.96-3.77-2.22-7.5-4.53-11.06-7.08-2.87-2.53-6.85-4.63-7.95-8.52.58-3.17,4.39-2.98,6.84-3.45,2.68-.37,5.34-.87,8-1.37,7.61-1.37,15.13-3.22,22.5-5.55,6.43-1.89,12.66-4.37,18.83-6.99,5.42-2.46,10.71-5.2,15.82-8.25,10.35-6.12,19.92-13.54,28.43-22.01ZM523.93,425.87c-4.81,6.91-9.94,13.74-16.21,19.41l.11.22c-19.38,19.63-44.03,33.35-70.04,42.1l-.28-.23c-6.95,2.63-14.23,4.27-21.48,5.81-1.04.23-1.98.72-2.92,1.18,5.09,5.4,11.66,9.1,18.38,12.08,7.33,3.21,14.93,5.89,22.79,7.4,15.28,2.85,31.86,2.22,45.74-5.39,13.8-7.33,23.36-21.13,27.22-36.1,4.04-14.9,2.99-30.79-1.33-45.51-.16-1.01-1.19-2.81-1.98-.97Z"/><path class="cls-2" d="M535.13,509.9c2.16-1.66,6.03,1.09,4.57,3.67-2.86,6.04-6.86,11.67-12.21,15.76-4.03,3.12-8.39,6.29-13.53,7.13-2.31.46-5.66-.78-5.38-3.59.99-2.43,4.08-1.79,6.12-2.66,9.51-3.26,15.8-11.83,20.43-20.31Z"/><path class="cls-2" d="M101.28,737.08c26.62-28.82,53.09-57.76,79.78-86.52,1.38,3.69,2.79,7.37,4.16,11.07-23.9,26.02-47.94,51.92-71.76,78.02,55.32,30.62,110.63,61.28,165.9,91.99,2.23,1.86,5.11,1.33,7.77,1.14,5.52-.47,11.24,2.09,14.4,6.68,3.59,5.03,4.09,11.53,3.68,17.52-.32,4.34-1.95,8.37-3.52,12.37-1.61,9.33-2.43,18.8-3.07,28.25-.67,4.37-7.62,4.62-8.68.36-.44-6.95.83-13.87,1.49-20.77-1.5.16-2.98.4-4.44.7-2.09,7.28-3.58,14.76-5.2,22.17-.62,2.59-.7,6.2-3.8,7.12-3.19,1.22-6.77-2.03-5.77-5.33,1.56-8.69,3.95-17.23,5.68-25.88l-.94-.5c-4.77,5.7-7.83,12.91-12.43,18.84-3.24,3.08-9-1.01-7.04-5.05,3.91-6.98,8.46-13.6,12.54-20.48-1.1-3.81-1.66-7.78-1.34-11.75-5.01,3.01-10,6.24-15.59,8.08-4.38,1.18-7.28-5.23-3.72-7.85,8.87-4.26,17.94-8.95,24.55-16.45-57.15-31.77-114.39-63.39-171.54-95.17-3.2-1.53-3.75-6.24-1.11-8.56Z"/><path class="cls-2" d="M576.56,878.92c3.44-1.41,6.79-2.99,10.18-4.52,4.41,32.52,9.72,64.94,14.38,97.44.65,2.82-1.43,5.41-4.04,6.21-24.65,10.32-49.27,20.73-73.94,31.04,11.6,26.3,23.46,52.49,35.05,78.8,1.7.09,3.64.4,4.91-1.04,7.07-6.19,15.58-10.89,24.84-12.73,13.96-2.86,28.98.92,40.22,9.59,4.06,3.18,7.82,7.16,9.41,12.18.76,3.23-2.17,6.62-5.49,6.26-25.69-1.19-51.38-2.56-77.07-3.81-2.46.08-4.68-1.52-5.45-3.83-12.09-27.08-24.12-54.2-36.26-81.26-21.34,8.97-42.67,17.93-64,26.9-2.13.91-4.41,1.58-6.28,2.99,15.55,3.63,28.98,15.11,34.62,30.1,3.22,8.7,5.21,18.81,1.63,27.7-1.33,3.86-5.86,3.71-9.15,4.46-2.37.24-4.05-1.67-5.22-3.44-13.14-18.81-26.44-37.51-39.55-56.34-2.04-2.64-.69-6.9,2.46-7.93,27.04-11.42,54.12-22.76,81.18-34.14-14.39-32.39-28.88-64.73-43.27-97.11,2.88-.23,5.74-.61,8.61-.98,1.06.15,2.12.33,3.19.53,2.71,8.07,6.81,15.61,10.08,23.47,10.44,23.31,20.71,46.7,31.27,69.96,23.7-9.99,47.39-20.01,71.14-29.88-4.32-30.23-9.11-60.39-13.45-90.62Z"/><path class="cls-11" d="M354.85,206.68c39.16-10.23,81.72-9.3,119.59,5.52-6.94.27-14.02.22-20.72,2.27-11.54,3.38-22.34,9.83-30.11,19.09-7.48-1.11-15.09-.72-22.6-.28-6.34.59-12.76.89-18.93,2.53,18.33,23.53,33.52,49.49,45.11,76.96.69,1.59,1.6,3.07,2.55,4.52-4.32,16.85.01,35.24,10.08,49.24-2.74,2.16-6.04,3.36-9.26,4.59-5.31-18.53-11.68-36.76-18.99-54.6-12.21-30.36-27.64-59.56-47.19-85.87-5.4-7.01-10.8-14.06-17.02-20.38,2.43-1.32,4.85-2.72,7.49-3.59Z"/><path class="cls-11" d="M214.8,293.6c30.21-36.24,70.81-63.41,115.18-79.14,3.82,8.03,8.07,15.86,11.52,24.07,9.38,20.52,16.63,41.94,23.33,63.47,5.38,17.72,10.1,35.64,14.18,53.7-3.47-1.89-7.11-3.48-10.86-4.69-6.29-35.18-14.37-70.16-26.4-103.85-20.59,7.78-40.05,18.57-57.68,31.75-23.01,17.66-42.75,39.69-57.12,64.92-14.11,24.49-23.39,51.58-28.43,79.34-.6,4.02-2.03,8.1-1.11,12.19-2.51,4.66-3.23,10.08-1.89,15.23-.35,1.2-.72,2.4-.95,3.64-3.12,43.86,2.77,88.09,14.94,130.25,4.54,16.42,10.58,32.37,16.68,48.26,14.71,37.75,31.74,74.89,54.68,108.43,19.88,29.19,45.01,55.66,76.3,72.63,30.17,16.45,65.33,23.25,99.48,20.46-15.41-32.05-26.95-65.86-35.34-100.39-19.59-79.51-26.02-161.37-34.99-242.53,5.39-6.42,10.15-13.34,14.34-20.59,1.37,5.48,1.65,11.19,3.03,16.65.32.28.94.82,1.25,1.1-2.45.47-6.26.28-6.84,3.45,1.1,3.89,5.08,5.99,7.95,8.52.09,2.8.27,5.62.81,8.38,13.84,87.92,25.95,176.72,53.62,261.63,13.4,39.85,30.4,78.89,54.65,113.42,2.8,4.13,6.1,7.94,8.43,12.39-16.16,4.23-32.6,7.52-49.23,9.17-2.87.37-5.73.75-8.61.98-31.11,2.53-62.93-.17-92.55-10.37-24.94-8.43-47.9-22.13-67.96-39.09.41-5.99-.09-12.49-3.68-17.52-3.16-4.59-8.88-7.15-14.4-6.68-2.66.19-5.54.72-7.77-1.14-20.61-23.22-37.67-49.39-52.38-76.69-16.17-30.04-29.66-61.45-41.76-93.32-1.37-3.7-2.78-7.38-4.16-11.07-16.64-45.16-27.6-92.61-30.26-140.73-2.41-43.78,2.15-88.26,16.19-129.93,10.52-31.34,26.55-60.93,47.81-86.3Z"/><path class="cls-11" d="M441.04,235.45c13.63-7.94,29.03-12.22,44.62-14.04,3.9.77,8.11-.62,11.85.94,13.34,6.98,25.96,15.32,37.76,24.69-8.39,5.77-16.6,11.79-24.71,17.94-20.74-14.55-44.45-25.31-69.52-29.53Z"/><path class="cls-11" d="M599.31,368.39c7.18-6.93,14.17-14.07,20.28-21.97,9.47,15.23,17.93,31.08,25.83,47.17,1.68,3.43,3.36,6.86,4.97,10.33,13.37,28.58,24.9,58.02,34.69,88.02,11.62,35.82,20.56,72.59,25.28,109.99,4.1,32.84,4.95,66.24.47,99.1-3.59,26.3-10.73,52.26-22.45,76.14-9.81,20.06-22.89,38.55-38.77,54.28-18.11,17.99-39.66,32.4-62.87,42.95-3.39,1.53-6.74,3.11-10.18,4.52-12.12,4.86-24.51,9.05-36.98,12.89-2.17-5.4-5.67-10.11-8.21-15.31-13.46-25.47-23.32-52.71-30.56-80.55-22.18-85.04-22.86-173.54-35.71-260.09-.77-4.72-1.46-9.45-2.09-14.18,4.97.19,9.97.15,14.94-.26,4.11,22.64,5.68,45.65,7.75,68.54,3.69,47.33,5.53,94.82,11.31,141.96,3.72,31.1,9.42,62.03,18.31,92.09,6.95-.88,13.46-3.67,20.14-5.67,27.13-8.58,53.28-21.43,74.83-40.21,19.5-16.79,34.97-38.21,45.02-61.9,12.69-28.97,17.69-60.83,18.02-92.31.47-41.33-6.94-82.39-18.16-122.06-11.31-38.53-25.67-76.23-44.02-111.98-3.72-7.28-7.3-14.68-11.84-21.49Z"/><path class="cls-11" d="M435.88,389.6c5.03-2.89,10.22-5.71,15.97-6.87,2.97,12.75,6.53,25.36,9.12,38.2,3.53,15.04,5.95,30.31,9.12,45.41-5.11,3.05-10.4,5.79-15.82,8.25-.07-4.07-.88-8.07-1.76-12.02-4.74-24.5-10.06-48.9-16.63-72.97Z"/><path class="cls-12" d="M339.96,213c2.56-.63,5.05-1.53,7.4-2.73,6.22,6.32,11.62,13.37,17.02,20.38,19.55,26.31,34.98,55.51,47.19,85.87,7.31,17.84,13.68,36.07,18.99,54.6-6.63,2.58-12.23,6.99-18.03,10.98-10.46-40.11-23.98-79.52-41.47-117.13-7.17-14.8-14.9-29.36-23.94-43.11-2.03-3.16-4.45-6.04-7.05-8.73l-.11-.13Z"/><path class="cls-12" d="M329.98,214.46c2.35-.15,4.69-.48,7.02-.85,20.06,39.03,33.85,80.94,45.08,123.26,1.91,8.42,4.67,16.66,5.93,25.21-2.8-2.4-5.82-4.53-9-6.38-4.08-18.06-8.8-35.98-14.18-53.7-6.7-21.53-13.95-42.95-23.33-63.47-3.45-8.21-7.7-16.04-11.52-24.07Z"/><path class="cls-12" d="M382.08,235.81c6.17-1.64,12.59-1.94,18.93-2.53,7.51-.44,15.12-.83,22.6.28-3.26,4.3-6.54,8.91-7.73,14.25.31,2.2,3.08,2.85,4.57,1.33,6.68-4.82,13.37-9.67,20.59-13.69,25.07,4.22,48.78,14.98,69.52,29.53-4.15,3.24-8.17,6.62-12.21,9.99-29.01-5.34-61.09,13.35-68.61,42.32-.95-1.45-1.86-2.93-2.55-4.52-11.59-27.47-26.78-53.43-45.11-76.96Z"/><path class="cls-12" d="M284.07,278.91c17.63-13.18,37.09-23.97,57.68-31.75,12.03,33.69,20.11,68.67,26.4,103.85-29.72-8.94-65.26,9-74.07,39.12-13.58,4.79-26.68,10.79-40.07,16.03l-.16-2.32c1.53-24.04,12.31-46.96,28.63-64.51,6.86-7.54,14.72-14.1,23.03-19.98,1.86-.94,3.64-4.64.65-5.23-6.92-.59-13.67,2.1-19.78,5.08-14.46,7.18-24.62,21.04-29.83,36.05-4.06,11.07-5.25,22.93-5.55,34.65-.08,5.56.33,11.15,1.44,16.61-1.86,1.55-4.15,2.43-6.35,3.38-13.63,5.92-27.11,12.18-40.61,18.39-3.34,1.49-6.06,4.05-8.07,7.08-.92-4.09.51-8.17,1.11-12.19,5.04-27.76,14.32-54.85,28.43-79.34,14.37-25.23,34.11-47.26,57.12-64.92Z"/><path class="cls-12" d="M579.1,385.78c7-5.47,13.79-11.24,20.21-17.39,4.54,6.81,8.12,14.21,11.84,21.49,18.35,35.75,32.71,73.45,44.02,111.98,11.22,39.67,18.63,80.73,18.16,122.06-.33,31.48-5.33,63.34-18.02,92.31-10.05,23.69-25.52,45.11-45.02,61.9-21.55,18.78-47.7,31.63-74.83,40.21-6.68,2-13.19,4.79-20.14,5.67-8.89-30.06-14.59-60.99-18.31-92.09-5.78-47.14-7.62-94.63-11.31-141.96-2.07-22.89-3.64-45.9-7.75-68.54,14.57-1.18,29.19-6.61,39.39-17.38,12.35-12.8,18.04-30.74,18.81-48.23.6-15.5-2-31.66-10.26-45.02-8.53,11.64-16.98,23.45-27.37,33.54-8.51,8.47-18.08,15.89-28.43,22.01-3.17-15.1-5.59-30.37-9.12-45.41-2.59-12.84-6.15-25.45-9.12-38.2,1.68-.2,3.39-.32,5.1-.42,9.98,10.84,24.46,15.96,38.53,18.94,20.3,3.75,41.67,3.61,61.48-2.62,8.29-2.47,15.35-7.66,22.14-12.85ZM535.13,509.9c-4.63,8.48-10.92,17.05-20.43,20.31-2.04.87-5.13.23-6.12,2.66-.28,2.81,3.07,4.05,5.38,3.59,5.14-.84,9.5-4.01,13.53-7.13,5.35-4.09,9.35-9.72,12.21-15.76,1.46-2.58-2.41-5.33-4.57-3.67Z"/><path class="cls-12" d="M417.34,401.51c6.3-3.77,12.19-8.21,18.54-11.91,6.57,24.07,11.89,48.47,16.63,72.97.88,3.95,1.69,7.95,1.76,12.02-6.17,2.62-12.4,5.1-18.83,6.99-4.26-19.84-8.06-39.8-12.71-59.57-1.79-6.83-2.85-13.89-5.39-20.5Z"/><path class="cls-12" d="M194.57,454.23c.23-1.24.6-2.44.95-3.64,1.59,3.78,4.12,7.04,6.65,10.23,10.07,13.11,21.39,25.26,33.7,36.3,13.17,11.6,27.48,22.13,43.51,29.45,2.08.93,4.29,1.69,6.58,1.89,9.83.88,19.62-.99,29.21-2.91,16.4-3.76,32.58-8.78,47.93-15.7,9.25-3.98,16.59-11.14,23.22-18.51,8.97,81.16,15.4,163.02,34.99,242.53,8.39,34.53,19.93,68.34,35.34,100.39-34.15,2.79-69.31-4.01-99.48-20.46-31.29-16.97-56.42-43.44-76.3-72.63-22.94-33.54-39.97-70.68-54.68-108.43-6.1-15.89-12.14-31.84-16.68-48.26-12.17-42.16-18.06-86.39-14.94-130.25Z"/><path class="cls-12" d="M400.66,470.75c2.49-4.59,4.84-9.25,6.92-14.04,2.18,10.07,3.73,20.26,5.36,30.42-2.66.5-5.32,1-8,1.37-.31-.28-.93-.82-1.25-1.1-1.38-5.46-1.66-11.17-3.03-16.65Z"/><path class="cls-12" d="M406.05,500.47c3.56,2.55,7.29,4.86,11.06,7.08-.06,4.07.63,8.09,1.43,12.07,7.21,44.51,14.41,89.03,22.72,133.35,7.25,37.62,15.12,75.16,25.7,112,6.28,22.32,13.39,44.42,22.11,65.91,2.69,7.19,6.88,13.67,10.51,20.41,8.11,15.23,16.72,30.27,26.95,44.2-1,.26-1.99.53-2.97.8-2.33-4.45-5.63-8.26-8.43-12.39-24.25-34.53-41.25-73.57-54.65-113.42-27.67-84.91-39.78-173.71-53.62-261.63-.54-2.76-.72-5.58-.81-8.38Z"/><path class="cls-12" d="M441.92,518.51c6.94,1.56,13.98,2.72,21.09,3.17.63,4.73,1.32,9.46,2.09,14.18,12.85,86.55,13.53,175.05,35.71,260.09,7.24,27.84,17.1,55.08,30.56,80.55,2.54,5.2,6.04,9.91,8.21,15.31-2.04.59-4.07,1.14-6.1,1.72-6.41-9.69-11.26-20.27-16.46-30.62-7.77-16.43-13.52-33.7-19.03-50.99-26.25-85.34-37-174.26-51.18-262.12-1.44-10.46-3.77-20.79-4.89-31.29Z"/><path class="cls-18" d="M585.08,212.74c7.41-3.27,16.84-.91,21.8,5.49,2.68,3.69,3.89,8.18,5.66,12.33,10.36,27.51,17.13,56.78,16.67,86.3-.45,6.37,0,13.16-2.98,19.01-1.84,3.73-4.19,7.19-6.64,10.55-6.11,7.9-13.1,15.04-20.28,21.97-6.42,6.15-13.21,11.92-20.21,17.39-6.79,5.19-13.85,10.38-22.14,12.85-19.81,6.23-41.18,6.37-61.48,2.62-14.07-2.98-28.55-8.1-38.53-18.94-1.71.1-3.42.22-5.1.42-5.75,1.16-10.94,3.98-15.97,6.87-6.35,3.7-12.24,8.14-18.54,11.91-1.47,1.19-3.02,2.46-3.68,4.3.49,3.72,1.71,7.32,1.91,11.08.99,13.72-2.86,27.24-7.99,39.82-2.08,4.79-4.43,9.45-6.92,14.04-4.19,7.25-8.95,14.17-14.34,20.59-6.63,7.37-13.97,14.53-23.22,18.51-15.35,6.92-31.53,11.94-47.93,15.7-9.59,1.92-19.38,3.79-29.21,2.91-2.29-.2-4.5-.96-6.58-1.89-16.03-7.32-30.34-17.85-43.51-29.45-12.31-11.04-23.63-23.19-33.7-36.3-2.53-3.19-5.06-6.45-6.65-10.23-1.34-5.15-.62-10.57,1.89-15.23,2.01-3.03,4.73-5.59,8.07-7.08,13.5-6.21,26.98-12.47,40.61-18.39,2.2-.95,4.49-1.83,6.35-3.38.49-.88.97-1.77,1.41-2.67l.16,2.32c13.39-5.24,26.49-11.24,40.07-16.03,2.21-.78,4.42-1.56,6.56-2.53,14.95-4,29.97-8.21,45.45-9.72,15.87-1.59,32.76-1.73,47.47,5.27,1.3.59,2.66,1.04,4.07,1.35,1.96-.05,3.92-.19,5.88-.33,3.08-.28,6.14-.92,9.02-2.07,5.8-3.99,11.4-8.4,18.03-10.98,3.22-1.23,6.52-2.43,9.26-4.59,1.44-1.13,2.81-2.36,4.07-3.7,1.58-1.96,2.89-4.24,3.05-6.82,2.18-17.72,10.01-34.34,20.55-48.61,7.35-10.11,16.14-19.05,25.24-27.59,1.84-1.65,3.75-3.22,5.62-4.84,4.04-3.37,8.06-6.75,12.21-9.99,8.11-6.15,16.32-12.17,24.71-17.94,13.76-9.56,27.86-18.62,41.4-28.5,2.78-1.96,5.31-4.34,8.41-5.8ZM541.31,251.72c-8.47,5.42-16.39,11.67-24.28,17.9-3.16,2.53-6.35,5.04-9.32,7.81l-.26-.12c-1.5,1.44-3.01,2.86-4.54,4.26-14.96,13.12-29.14,27.55-39.59,44.6-6.51,10.91-11.65,23.93-8.64,36.79,1.87,7.04,5.89,13.97,12.03,18.05,3.43,4.28,8.75,6.9,13.86,8.56,13.75,5.53,28.87,6.74,43.57,6.8,10.05-.18,20.21-1.1,29.87-4.05,6.77-2.02,12.66-6.09,18.26-10.26,8.18-6.2,15.93-12.95,23.33-20.06,7.16-6.92,14.1-14.13,20-22.17,3.5-4.62,6.1-10.01,6.46-15.87,4.25-29.29-13.05-59.91-40.02-71.84-12.72-5.77-28.01-6.59-40.73-.4ZM297.97,396.52c-1.98.69-3.95,1.42-5.9,2.18-11.28,4.44-22.41,9.25-33.7,13.65-12.37,6.99-19.87,20.7-21.5,34.57-3.41,27.97,12.48,56.8,37.4,69.67,4.95,2.43,10.11,5.15,15.78,5.05,8.14.08,16.16-1.54,24.08-3.23,13.15-3.02,26.1-6.96,38.68-11.87,5.9-2.42,11.96-4.84,16.93-8.96,5.91-4.83,10.99-10.59,15.61-16.64,5.38-7.13,10.1-14.78,13.75-22.94l-.09-.37c2.92-4.87,4.61-10.37,6.41-15.73l-.09-.27c2.9-8.57,4.45-17.97,2.77-26.93-.58-4.71-1.94-9.92-5.44-13.3-.26-2.02-1.86-3.48-3.11-4.94-2.24-2.22-4.47-4.64-7.46-5.81-13.01-5.1-27.13-7.14-41.06-6.48-18.25.88-36.07,5.83-53.06,12.35Z"/><path class="cls-9" d="M337,213.61c.77-.12,2.31-.36,3.07-.48,2.6,2.69,5.02,5.57,7.05,8.73,9.04,13.75,16.77,28.31,23.94,43.11,17.49,37.61,31.01,77.02,41.47,117.13-2.88,1.15-5.94,1.79-9.02,2.07-3.43-8.41-8.86-15.92-15.5-22.09-1.26-8.55-4.02-16.79-5.93-25.21-11.23-42.32-25.02-84.23-45.08-123.26Z"/><path class="cls-9" d="M413.66,405.81c.66-1.84,2.21-3.11,3.68-4.3,2.54,6.61,3.6,13.67,5.39,20.5,4.65,19.77,8.45,39.73,12.71,59.57-7.37,2.33-14.89,4.18-22.5,5.55-1.63-10.16-3.18-20.35-5.36-30.42,5.13-12.58,8.98-26.1,7.99-39.82-.2-3.76-1.42-7.36-1.91-11.08Z"/><path class="cls-9" d="M417.11,507.55c7.89,4.43,16.13,8.35,24.81,10.96,1.12,10.5,3.45,20.83,4.89,31.29,14.18,87.86,24.93,176.78,51.18,262.12,5.51,17.29,11.26,34.56,19.03,50.99,5.2,10.35,10.05,20.93,16.46,30.62-2.32.64-4.64,1.31-6.95,1.96-10.23-13.93-18.84-28.97-26.95-44.2-3.63-6.74-7.82-13.22-10.51-20.41-8.72-21.49-15.83-43.59-22.11-65.91-10.58-36.84-18.45-74.38-25.7-112-8.31-44.32-15.51-88.84-22.72-133.35-.8-3.98-1.49-8-1.43-12.07Z"/><path class="cls-10" d="M541.31,251.72c12.72-6.19,28.01-5.37,40.73.4,26.97,11.93,44.27,42.55,40.02,71.84-.36,5.86-2.96,11.25-6.46,15.87-17.96-28.4-38.68-55.26-63.34-78.18-3.57-3.41-7.4-6.52-10.95-9.93Z"/><path class="cls-15" d="M517.03,269.62c7.89-6.23,15.81-12.48,24.28-17.9,3.55,3.41,7.38,6.52,10.95,9.93,24.66,22.92,45.38,49.78,63.34,78.18-5.9,8.04-12.84,15.25-20,22.17-12.36-22.04-27.62-42.4-44.35-61.31-10.64-11.15-21.8-21.89-34.22-31.07Z"/><path class="cls-15" d="M382.29,453.97c4.91-3.62,9.7-7.48,13.6-12.2,1.27,5.24,1.62,10.67,3.12,15.86l.09.37c-3.65,8.16-8.37,15.81-13.75,22.94-.48-6.43-1.32-12.83-2.21-19.21.25-2.64.04-5.27-.85-7.76Z"/><path class="cls-7" d="M507.71,277.43c2.97-2.77,6.16-5.28,9.32-7.81,12.42,9.18,23.58,19.92,34.22,31.07,16.73,18.91,31.99,39.27,44.35,61.31-7.4,7.11-15.15,13.86-23.33,20.06-5.6,4.17-11.49,8.24-18.26,10.26-9.66,2.95-19.82,3.87-29.87,4.05-14.7-.06-29.82-1.27-43.57-6.8,6.48-.23,13.01-.43,19.33-2.06.31-.91.62-1.81.95-2.71-.24,2.76.22,5.97,2.99,7.33,4.42,2.03,9.5.6,13.96-.62,11.6-3.85,22.31-10.36,31.28-18.65,3.19-3.15,6.58-6.57,7.76-11.03.97-3.35-1.18-7.43-4.74-7.99-4.02-.8-8.17,0-12.05,1.09,4.07-10.11,5.62-21.23,3.66-32-3.37-19.88-16.94-38.21-36-45.5Z"/><path class="cls-7" d="M258.37,412.35c11.29-4.4,22.42-9.21,33.7-13.65-2.25,21.84,8,44.72,26.44,56.82,4.2,2.62,8.63,5.33,13.66,5.82-4.03,2.33-8.43,5.09-10.14,9.66-1.36,3.53,1.25,7.39,4.72,8.31,6.63,1.83,13.7,1.02,20.39-.1,13.07-2.84,26.79-7.24,36-17.48.89,6.38,1.73,12.78,2.21,19.21-4.62,6.05-9.7,11.81-15.61,16.64-4.97,4.12-11.03,6.54-16.93,8.96-12.58,4.91-25.53,8.85-38.68,11.87-7.92,1.69-15.94,3.31-24.08,3.23-5.67.1-10.83-2.62-15.78-5.05-24.92-12.87-40.81-41.7-37.4-69.67,1.63-13.87,9.13-27.58,21.5-34.57Z"/><path class="cls-7" d="M395.89,441.77c2.48-3.2,4.77-6.57,6.81-10.08.76,3.34,1.4,6.72,2.63,9.94l.09.27c-1.8,5.36-3.49,10.86-6.41,15.73-1.5-5.19-1.85-10.62-3.12-15.86Z"/><path class="cls-6" d="M507.45,277.31l.26.12c19.06,7.29,32.63,25.62,36,45.5,1.96,10.77.41,21.89-3.66,32-2.74.98-5.44,2.05-8.12,3.19,6.26-10.53,8.68-23.28,6.1-35.32-3.46-18.6-16.86-35.41-35.12-41.23,1.53-1.4,3.04-2.82,4.54-4.26Z"/><path class="cls-6" d="M497.66,311.63c6.23-1.35,13.09-.45,18.43,3.18,8.51,5.74,12.64,17.16,9.98,27.05-3.65,13.48-20.09,20.99-32.9,16.05-12.15-4.49-18.41-19.85-13.6-31.71,3.04-7.54,10.25-12.88,18.09-14.57ZM502.42,320.33c-2.81,1.79-1.59,6.77,1.71,7.11,2.95.58,6.07-2.56,4.66-5.48-.81-2.63-4.36-3.28-6.37-1.63ZM516.4,325.31c-4.57.84-6.87,6.57-4.11,10.33,2.96,5.09,11.78,2.93,12.42-2.8.77-4.54-3.75-9.03-8.31-7.53Z"/><path class="cls-6" d="M466.71,381.01c11.54,3.86,24.15,3.76,35.69-.02-.59,1.24-1.1,2.51-1.55,3.81-.33.9-.64,1.8-.95,2.71-6.32,1.63-12.85,1.83-19.33,2.06-5.11-1.66-10.43-4.28-13.86-8.56Z"/><path class="cls-6" d="M360.53,386.48c5.96-1.51,12.54-.94,17.93,2.12,11.04,6.24,15.67,21.9,9.25,32.96-6.9,12.2-24.96,16.64-36.26,7.98-8.62-6.59-12.26-19.23-7.88-29.26,3.03-6.97,9.68-11.97,16.96-13.8ZM367.44,394.32c-2.67.71-3.73,4.13-2.01,6.28,2.11,3.13,7.92,1.03,7.4-2.77-.05-2.63-2.95-4.55-5.39-3.51ZM379.3,400.24c-4.59,1.36-5.87,7.67-2.55,10.95,3.66,4.18,11.72,1.28,11.77-4.32.43-4.77-4.79-8.72-9.22-6.63Z"/><path class="cls-6" d="M292.07,398.7c1.95-.76,3.92-1.49,5.9-2.18-3.14,20.25,5.73,42.03,22.65,53.73,5.38,3.83,11.67,5.99,18,7.66-2.2,1.04-4.3,2.28-6.45,3.43-5.03-.49-9.46-3.2-13.66-5.82-18.44-12.1-28.69-34.98-26.44-56.82Z"/><path class="cls-6" d="M402.66,401.4c3.5,3.38,4.86,8.59,5.44,13.3-1.25,5.82-2.92,11.57-5.4,16.99-2.04,3.51-4.33,6.88-6.81,10.08-3.9,4.72-8.69,8.58-13.6,12.2-2.09-1-4.19-2.01-6.39-2.76,6.26-3.65,12-8.27,16.47-14,8.14-9.94,11.42-23.13,10.29-35.81Z"/><path class="cls-17" d="M447.36,297.16c11.58-12.06,28.67-18.71,45.37-17.35-9.1,8.54-17.89,17.48-25.24,27.59-10.54,14.27-18.37,30.89-20.55,48.61-.16,2.58-1.47,4.86-3.05,6.82-7.24-10.76-11.33-23.88-10.04-36.9,1-10.78,6-21.02,13.51-28.77Z"/><path class="cls-17" d="M300.64,387.6c10.28-24.5,39.84-38.76,65.38-31.38,14.2,3.93,25.58,15.05,31.61,28.28-1.41-.31-2.77-.76-4.07-1.35-14.71-7-31.6-6.86-47.47-5.27-15.48,1.51-30.5,5.72-45.45,9.72Z"/><path class="cls-17" d="M507.83,445.5c2.27,3.99,3.73,9.15,1.29,13.4-2.99,5.43-9.31,7.33-13.37,11.71-4.18,4.1-9.47,6.71-14.72,9.15-4.36,3.76-9.3,6.9-14.91,8.41-4.73,2.43-9.62,4.92-14.97,5.57-5.17.28-9.63-2.92-13.36-6.14,26.01-8.75,50.66-22.47,70.04-42.1Z"/><path class="cls-17" d="M517.18,477.46c2.23-3.35,6.11-5.04,10.06-5.11-3.86,14.97-13.42,28.77-27.22,36.1-13.88,7.61-30.46,8.24-45.74,5.39,3.15-4.07,8.14-6.6,13.35-5.41,3.78-2.34,7.96-4.01,12.46-4.25,3.39-3.7,8-6.3,13.04-6.77,3.17-3.86,7.36-6.65,11.83-8.81,1.31-1.94,2.69-3.88,4.55-5.35,2.46-2.07,5.84-2.99,7.67-5.79Z"/><path class="cls-20" d="M463.32,326.17c10.45-17.05,24.63-31.48,39.59-44.6,18.26,5.82,31.66,22.63,35.12,41.23,2.58,12.04.16,24.79-6.1,35.32-11.12,5.65-22.22,12.5-29.53,22.87-11.54,3.78-24.15,3.88-35.69.02-6.14-4.08-10.16-11.01-12.03-18.05-3.01-12.86,2.13-25.88,8.64-36.79ZM497.66,311.63c-7.84,1.69-15.05,7.03-18.09,14.57-4.81,11.86,1.45,27.22,13.6,31.71,12.81,4.94,29.25-2.57,32.9-16.05,2.66-9.89-1.47-21.31-9.98-27.05-5.34-3.63-12.2-4.53-18.43-3.18Z"/><path class="cls-20" d="M502.42,320.33c2.01-1.65,5.56-1,6.37,1.63,1.41,2.92-1.71,6.06-4.66,5.48-3.3-.34-4.52-5.32-1.71-7.11Z"/><path class="cls-20" d="M516.4,325.31c4.56-1.5,9.08,2.99,8.31,7.53-.64,5.73-9.46,7.89-12.42,2.8-2.76-3.76-.46-9.49,4.11-10.33Z"/><path class="cls-20" d="M297.97,396.52c16.99-6.52,34.81-11.47,53.06-12.35,13.93-.66,28.05,1.38,41.06,6.48,2.99,1.17,5.22,3.59,7.46,5.81,1.25,1.46,2.85,2.92,3.11,4.94,1.13,12.68-2.15,25.87-10.29,35.81-4.47,5.73-10.21,10.35-16.47,14-12.79-1.5-25.44,2.25-37.28,6.7-6.33-1.67-12.62-3.83-18-7.66-16.92-11.7-25.79-33.48-22.65-53.73ZM360.53,386.48c-7.28,1.83-13.93,6.83-16.96,13.8-4.38,10.03-.74,22.67,7.88,29.26,11.3,8.66,29.36,4.22,36.26-7.98,6.42-11.06,1.79-26.72-9.25-32.96-5.39-3.06-11.97-3.63-17.93-2.12Z"/><path class="cls-20" d="M367.44,394.32c2.44-1.04,5.34.88,5.39,3.51.52,3.8-5.29,5.9-7.4,2.77-1.72-2.15-.66-5.57,2.01-6.28Z"/><path class="cls-20" d="M379.3,400.24c4.43-2.09,9.65,1.86,9.22,6.63-.05,5.6-8.11,8.5-11.77,4.32-3.32-3.28-2.04-9.59,2.55-10.95Z"/><path class="cls-19" d="M540.05,354.93c3.88-1.1,8.03-1.89,12.05-1.09,3.56.56,5.71,4.64,4.74,7.99-1.18,4.46-4.57,7.88-7.76,11.03-8.97,8.29-19.68,14.8-31.28,18.65-4.46,1.22-9.54,2.65-13.96.62-2.77-1.36-3.23-4.57-2.99-7.33.45-1.3.96-2.57,1.55-3.81,7.31-10.37,18.41-17.22,29.53-22.87,2.68-1.14,5.38-2.21,8.12-3.19Z"/><path class="cls-19" d="M338.62,457.91c11.84-4.45,24.49-8.2,37.28-6.7,2.2.75,4.3,1.76,6.39,2.76.89,2.49,1.1,5.12.85,7.76-9.21,10.24-22.93,14.64-36,17.48-6.69,1.12-13.76,1.93-20.39.1-3.47-.92-6.08-4.78-4.72-8.31,1.71-4.57,6.11-7.33,10.14-9.66,2.15-1.15,4.25-2.39,6.45-3.43Z"/><path class="cls-1" d="M408.1,414.7c1.68,8.96.13,18.36-2.77,26.93-1.23-3.22-1.87-6.6-2.63-9.94,2.48-5.42,4.15-11.17,5.4-16.99Z"/><path class="cls-4" d="M523.93,425.87c.79-1.84,1.82-.04,1.98.97,4.32,14.72,5.37,30.61,1.33,45.51-3.95.07-7.83,1.76-10.06,5.11-15.45-.97-31.21,5.39-41.6,16.85-3.51,4.13-6.89,8.7-7.95,14.12-5.21-1.19-10.2,1.34-13.35,5.41-7.86-1.51-15.46-4.19-22.79-7.4-6.72-2.98-13.29-6.68-18.38-12.08.94-.46,1.88-.95,2.92-1.18,7.25-1.54,14.53-3.18,21.48-5.81l.28.23c3.73,3.22,8.19,6.42,13.36,6.14,5.35-.65,10.24-3.14,14.97-5.57,5.61-1.51,10.55-4.65,14.91-8.41,5.25-2.44,10.54-5.05,14.72-9.15,4.06-4.38,10.38-6.28,13.37-11.71,2.44-4.25.98-9.41-1.29-13.4l-.11-.22c6.27-5.67,11.4-12.5,16.21-19.41Z"/><path class="cls-14" d="M475.58,494.31c10.39-11.46,26.15-17.82,41.6-16.85-1.83,2.8-5.21,3.72-7.67,5.79-1.86,1.47-3.24,3.41-4.55,5.35-4.47,2.16-8.66,4.95-11.83,8.81-5.04.47-9.65,3.07-13.04,6.77-4.5.24-8.68,1.91-12.46,4.25,1.06-5.42,4.44-9.99,7.95-14.12Z"/><path class="cls-8" d="M507.69,143.55l18.35,17.85s-47.65,49.79-204.76,127.13c-157.07,77.32-212.17,66.97-212.17,66.97l-.87-15.31c-16.82,8.77-117.35,62.57-105.52,86.6,12.95,26.3,147.95-12.17,345.6-105.83,197.62-93.67,312.23-179.61,298.26-207.99-13.97-28.39-138.88,30.58-138.88,30.58Z"/><path class="cls-21" d="M506.02,144.47c5.69,5.52,11.3,11.03,17.01,16.54,1.57,1.58,1.85.57-.99,3.23-9.92,9.3-21.15,17.79-32.34,25.91-25.01,18.14-51.64,34.57-78.59,50.13-42.25,24.35-85.98,46.77-130.48,66.75-44.8,20.09-92.91,39-140.36,46.08-8.65,1.27-17.45,2.11-25.84,1.73-1.21-.08-2.49-.15-3.71-.36-1.01-.15-.72-12.9-.82-15.04-.06-.71-1.58.08-1.99.28-19.42,10.13-38.46,21.15-56.7,33.04-17.7,11.47-42.11,27.01-49.94,44.98-5.11,11.8,5.96,16.96,17.05,17.97,18.29,1.7,39.43-3.27,58.35-7.94,73.69-18.16,146.81-49.48,216.88-80.88,84.78-37.97,169.04-79.8,247.26-129.55,25.57-16.26,50.79-33.6,73.35-53.1,12.9-11.12,26.76-24.03,33.13-38.23,17.5-39.07-61.66-13.96-80.91-7.19-19.78,6.97-39.49,15.01-58.58,24.03-1.44.68-2.65,2.55-.28,1.42,14.08-6.64,28.51-12.61,42.99-18.2,23.47-9.07,49.62-18.75,73.79-19.73,15.93-.66,25.6,7.06,19.62,21.18-6.76,15.9-24.39,30.63-38.85,42.58-25.55,21.16-54.06,39.8-82.71,57.39-38.91,23.89-79.29,45.73-120.13,66.42-84.32,42.69-171.87,82.21-260.82,112.85-28.2,9.73-57.07,18.68-85.9,23.99-14.8,2.73-34.38,6.02-46.35-.17-16.84-8.7,6.55-29.91,17.77-39.01,20.91-16.97,45.24-31.11,69.23-44.27,4.09-2.27,8.21-4.46,12.33-6.62-.68.08-1.35.18-1.97.26.29,5.11.59,10.22.88,15.33-.03.11.03.21.17.24,5.06.95,11,.54,16.45.18,17.86-1.22,36.19-5.37,54.05-10.26,33.03-9.07,65.5-21.84,97.19-35.76,43.68-19.18,86.41-41.19,127.94-64.57,33.25-18.78,65.99-38.93,96.18-61.59,9.67-7.27,19.87-14.94,28.06-23.45.13-.13.43-.47.24-.6-6.09-5.96-12.19-11.91-18.34-17.89-.64-.65-3.86,1.39-3.33,1.87Z"/><path class="cls-8" d="M512.2,129.47c-11.18-14.99-36.08-47.77-67.77-85.98-43.49-52.46-78.18-55.6-134.37-19.4-56.2,36.25-60.89,42.42-135.79,65.3-74.87,22.87-80.05,57.3-74.55,104.35,3.73,32.13,11.54,86.14,16.11,117.15,24.05.57,88.42-5.6,211.95-66.4,121.19-59.66,168.25-98.84,184.43-115.03Z"/><path class="cls-21" d="M503.02,134.21c-17.38-23.32-35.35-46.24-53.74-68.91-17.36-21.4-34.8-46.69-64.53-57.28-48.81-17.36-101.32,34.43-144.65,57.44-32.75,17.42-68.7,23.48-102.34,38.08-24.73,10.72-43.55,27.46-49.69,49.69-6.77,24.6-.9,49.27,2.11,72.16,4.01,30.6,8.41,61.06,12.89,91.53.08.22.47.19.65.2,43.74.97,92.55-15.5,135.36-32.08,43.66-16.95,85.98-37.81,127.36-59.87,31.17-16.59,61.83-34.37,90.79-54.2,16.14-11.03,32.13-22.94,45.62-36.38.96-.96-2.55-.16-3.21.54-11.65,11.57-25.17,21.87-38.92,31.6-28.21,20.02-58.52,37.64-89.15,54.24-70.3,38.15-147.88,76.41-225.65,90.68-9.08,1.67-18.17,2.85-27.19,3.46-3.01.19-6.03.32-9,.33-1.98.02-3.04.47-3.28-1.28-.54-3.74-1.1-7.46-1.64-11.15-4.6-31.58-9.18-63.16-13.11-94.94-2.79-22.45-7.39-48.03,6.63-71.82,18.53-31.36,64.21-40.01,97.29-51.19,28.56-9.6,53.48-22.36,78.72-38.69,26.17-16.91,55.42-39.68,87.13-40.12,29.75-.43,50.03,20.37,65.07,37.29,22.98,25.79,43.66,53.41,64.45,80.7,2.83,3.76,5.66,7.5,8.45,11.24.6.77,3.98-.76,3.57-1.27Z"/><path class="cls-3" d="M501.24,134.86c-16.17,16.19-63.23,55.37-184.43,115.03-123.53,60.81-187.9,66.97-211.95,66.4,1.36,9.19,2.43,16.37,3.02,20.33.36,2.24,1.21,18.87,1.21,18.87,0,0,55.1,10.35,212.17-66.97,157.11-77.34,204.76-127.13,204.76-127.13l-18.35-17.85s-2.28-3.13-6.45-8.68Z"/><path class="cls-13" d="M499.66,135c-11.65,11.56-25.2,21.91-38.91,31.62-28.18,20-58.52,37.64-89.14,54.26-70.1,38.06-147.23,76.09-224.75,90.62-13.66,2.57-27.48,4.28-40.77,3.99-.54-.02-3.14.42-3.04,1.27,1.93,13.04,3.54,25.92,4.23,39.24.06.13.16.21.28.25,5.04.9,10.86.54,16.24.19,17.26-1.08,35-4.98,52.3-9.59,32.39-8.66,64.24-21,95.34-34.43,43.86-19.01,86.75-41,128.42-64.29,34.26-19.15,67.98-39.78,99.1-63,9.93-7.4,20.34-15.17,28.67-23.88.2-.19.26-.32.13-.48-8.82-8.64-17.54-16.86-24.79-26.57-.49-.62-4,.56-3.48,1.29,5.07,6.79,10.37,12.53,16.53,18.52,2.71,2.6,5.38,5.22,8.04,7.81.08.06.56-.44-.47.56-7.36,7.27-15.84,13.89-24.26,20.33-57.53,43.97-124.65,79.4-190.42,111.11-53.6,25.83-112.93,51.68-170.66,59.8-8.73,1.2-17.73,2.08-26.07,1.32-2.89-.22-1.4-3.01-1.6-5.95-.62-11.3-2.26-22.18-3.91-33.24-1.01.43-2.02.86-3.05,1.31,43.2.94,91.23-15,133.58-31.27,44.28-17.03,87.22-38.2,129.18-60.54,31.17-16.59,61.86-34.31,90.8-54.17,16.13-11.03,32.15-22.91,45.68-36.37.98-.97-2.57-.41-3.23.3Z"/><path class="cls-21" d="M181.67,89.04s1.39-.41,3.87-1.1c1.21-.34,2.69-.74,4.41-1.2,1.7-.48,3.65-.96,5.72-1.6,4.16-1.27,9.01-2.46,14.2-4.12,2.6-.76,5.23-1.57,7.96-2.39,2.74-.81,5.46-1.8,8.21-2.69,2.74-.86,5.51-1.74,8.19-2.78,2.67-.99,5.34-1.88,7.88-2.81,2.53-1.02,5.01-2.01,7.3-2.92,2.33-.89,4.47-1.88,6.45-2.82,2.01-.93,3.79-1.74,5.45-2.47,1.57-.86,2.94-1.63,4.03-2.23,2.22-1.26,3.56-1.95,3.56-1.95,0,0-1.11.87-3.2,2.34-1.07.75-2.32,1.66-3.82,2.72-1.55.89-3.3,1.92-5.28,2.98-1.93,1.15-4.06,2.32-6.4,3.35-2.35,1.06-4.78,2.22-7.33,3.35-2.58,1.01-5.27,2.08-7.97,3.12-2.73,1.09-5.53,1.99-8.32,2.91-2.83.88-5.6,1.85-8.35,2.62-2.81.78-5.51,1.49-8.13,2.2-5.27,1.44-10.25,2.37-14.45,3.28-2.1.48-4.03.72-5.73.98-1.69.29-3.18.51-4.41.69-2.44.39-3.83.54-3.83.54Z"/><g class="cls-23"><path class="cls-16" d="M433.47,48.88C389.98-3.58,355.29-6.72,299.1,29.49c-56.2,36.25-60.89,42.42-135.79,65.3-73.84,22.55-79.88,56.34-74.78,102.43.03-.69.61-56.61,28.04-73.98,52.17-33.06,98.16-20.93,157.42-61.71,14.57-10.01,15.79-15.79,1.34-8.43-14.39,7.34,4.07-9,30.22-23.96,26.14-14.93,59.61-26.96,73.77,6.24,14.14,33.2,16.04,137.13-99.37,213.31-123.64,81.66-178.32,49.95-184.88-.75,3.39,24.69,7.15,50.34,9.77,68.36,24.05.57,88.42-5.6,211.95-66.4,121.19-59.66,168.25-98.84,184.43-115.03-11.18-14.99-36.08-47.77-67.77-85.98Z"/></g><g class="cls-23"><path class="cls-16" d="M507.69,143.55l18.35,17.85s-47.65,49.79-204.76,127.13c-157.07,77.32-212.17,66.97-212.17,66.97l-.87-15.31c-8.24,4.31-36.52,19.37-61.87,36.49,2.04-1.26,50.92-31.54,42.09-14.37-9.05,17.54,47.88,19.84,203.64-51.38,155.79-71.24,208.78-112.77,228.71-127.25,19.97-14.47,28.13,42.2-209.18,149.13C102.25,427.13-13.26,445.79,7.96,408.89c-5.34,6.79-7.67,12.97-5.24,17.89,12.95,26.3,147.95-12.17,345.6-105.83,197.62-93.67,312.23-179.61,298.26-207.99-13.97-28.39-138.88,30.58-138.88,30.58Z"/></g><g class="cls-24"><path class="cls-5" d="M507.69,143.55s-2.28-3.13-6.45-8.68c-16.17,16.19-63.23,55.37-184.43,115.03-123.53,60.81-187.9,66.97-211.95,66.4.79,5.22,1.46,9.82,2.04,13.53,3.87-9.77,19.1-10.88,44.9-14.53,29.68-4.18,135.26-40.74,209.18-83.79,73.55-42.81,59.16,2.4-56.73,59.84-115.87,57.42-193.58,66.7-196.02,48.85.36,5.59.87,15.31.87,15.31,0,0,55.1,10.35,212.17-66.97,157.11-77.34,204.76-127.13,204.76-127.13l-18.35-17.85Z"/></g><path class="cls-22" d="M58.66,371.4s-49.85,30.76-42.96,42.92c6.93,12.13,83.79,9.71,296.26-85.95,0,0-166.45,70.36-237.35,71.51-59.35.99-15.96-28.49-15.96-28.49Z"/><path class="cls-22" d="M101.05,239.11c-3.4-27.79-11.59-104.37,37.12-122.12,48.72-17.73,94.16-26.37,131.26-48.28,0,0-22.56,22.25-79.38,42.2-56.85,19.93-69.64,37.38-76.28,83.67-6.66,46.3-10.17,65.08-12.72,44.52Z"/><g class="cls-23"><path class="cls-16" d="M428.32,42.9c19.58,30.72,48.72,82.25-7.15,130.22-66.56,57.13-167,104.96-170.93,106.83,19.97-8.15,42.1-18.01,66.58-30.06,121.19-59.66,168.25-98.84,184.43-115.03-11.18-14.99-36.08-47.77-67.77-85.98-1.74-2.08-3.43-4.05-5.15-5.98Z"/></g><g class="cls-23"><path class="cls-16" d="M646.57,112.96c-13.97-28.39-138.88,30.58-138.88,30.58l.73.74c72.79-28.23,124.78-28.65,86.65,16.32-38.9,45.87-148.3,110.4-155.29,114.49,140.7-74.81,218.44-138.47,206.79-162.13Z"/></g></g></g></g></svg>