<?xml version="1.0" encoding="UTF-8"?>
<svg id="Capa_2"
    xmlns="http://www.w3.org/2000/svg" viewBox="0 0 152.81 50.48">
    <defs>
        <style>.cls-1{fill:#412F26;}.cls-1,.cls-2,.cls-3,.cls-4,.cls-5{stroke-width:0px;}.cls-6{isolation:isolate;}.cls-2{fill:#412F26;}.cls-3{fill:#412F26;}.cls-4{fill:#412F26;}.cls-5{fill:#412F26;}</style>
    </defs>
    <g id="Capa_1-2">
        <ellipse class="cls-1" cx="27.57" cy="38.99" rx="10.7" ry="6.5" transform="translate(-10.52 10.19) rotate(-17.65)"/>
        <path class="cls-2" d="M37.76,35.69s-16.5,1.7-20.4,6.5c0,0,3.5-1.3,8.1-1.4,4.5-.1,12-2,12.3-5.1Z"/>
        <ellipse class="cls-1" cx="14.12" cy="19.72" rx="6.5" ry="10.7" transform="translate(-8.19 29.23) rotate(-77.48)"/>
        <path class="cls-2" d="M3.66,17.39s15.2,6.8,20.9,4.6c0,0-3.7-.6-7.7-2.8-4-2.2-11.4-4.3-13.2-1.8Z"/>
        <path class="cls-5" d="M32.16,6.09s-8.9,8.8.3,18.3c.1,0,9.4-9.6-.3-18.3Z"/>
        <path class="cls-5" d="M49.36,26.29s-8.3-9.4-18.3-.7c0,0,9,9.9,18.3.7ZM51.06,3.39s-12.5.9-11.6,14.1c0,.1,13.4-1.1,11.6-14.1Z"/>
        <path class="cls-4" d="M7.86,36.89c-.2,0-.5-.2-.5-.4,0-.3.1-.5.4-.6,21.2-3.3,36.3-24.6,36.4-24.8.2-.2.5-.3.7-.1.2.2.3.5.1.7,0,.2-15.3,21.8-37.1,25.2q.07,0,0,0Z"/>
        <ellipse class="cls-1" cx="7.92" cy="38.65" rx="5.1" ry="8.4" transform="translate(-30.5 29.69) rotate(-65.28)"/>
        <path class="cls-2" d="M15.46,42.19s-10.5-7.7-15.2-7c0,0,2.7,1.1,5.4,3.4,2.7,2.3,8.1,5.2,9.8,3.6Z"/>
        <path class="cls-4" d="M44.66,26.89s-.1,0,0,0l-12.2-2c-.2,0-.4-.3-.4-.5l.1-13c0-.3.2-.5.5-.5s.5.2.5.5l-.1,12.6,11.7,2c.3,0,.5.3.4.6,0,.1-.3.3-.5.3Z"/>
        <g class="cls-6">
            <path class="cls-3" d="M74.42,49.54h-.21c-1.99,0-3.36-.33-4.11-.98-.61-.56-1.11-1.32-1.51-2.29-.94-2.27-1.46-5.32-1.58-9.14-.05-1.2-.07-2.4-.07-3.62,0-4.8.39-11.2,1.16-19.2.12-1.2.18-1.92.18-2.18,0-.8-.24-1.28-.72-1.44-.48-.16-1.37-.25-2.65-.25-1.71,0-2.9-.08-3.57-.25s-1.47-.61-2.41-1.34c-.68-.52-1.02-1.15-1.02-1.9,0-1.78,2.66-3.32,7.98-4.61,3.38-.82,6.82-1.44,10.34-1.86,2.58-.33,4.68-.49,6.29-.49,3.96,0,5.94,1.68,5.94,5.03,0,1.95-1.04,3.35-3.13,4.22-.94.38-2,.59-3.2.63-1.01.02-1.83.13-2.46.32s-.95.61-.95,1.27c0,.35.07,1.23.21,2.64.35,4.01.53,9.52.53,16.52,0,1.9-.04,4.49-.11,7.77s-.38,5.81-.91,7.59c-.7,2.27-2.04,3.46-4.01,3.55Z"/>
        </g>
        <g class="cls-6">
            <path class="cls-3" d="M102.79,50.45c-2.27,0-3.6-1.11-3.97-3.34-.19-1.1-.28-2.23-.28-3.38,0-1.52-.11-2.29-.32-2.29-.19,0-.6.55-1.23,1.65-.47.82-1.05,1.73-1.76,2.74-1.81,2.53-3.73,3.8-5.77,3.8-1.2,0-2.23-.33-3.09-.98-1.64-1.22-2.79-3.12-3.45-5.7-.3-1.17-.46-2.3-.46-3.38,0-3.09.67-6.09,2.02-9,1.35-2.91,3.16-5.07,5.43-6.5,1.48-.94,2.96-1.41,4.46-1.41,1.38,0,2.78.4,4.18,1.2.21.12.4.18.56.18.33,0,.68-.45,1.05-1.34.26-.68.67-1.32,1.23-1.93.77-.82,1.57-1.23,2.39-1.23.21,0,.62.07,1.23.21.61.14,1.16.88,1.65,2.21.28.8.58,2.88.91,6.26.68,7.48,1.02,13.17,1.02,17.09l-.04.91c-.07,1.22-.52,2.16-1.34,2.81-1.17.94-2.66,1.41-4.46,1.41ZM91.57,41.84c1.48,0,3-1.88,4.57-5.62,1.57-3.75,2.36-6.02,2.36-6.82s-.73-1.16-2.18-1.16c-1.55,0-2.94.95-4.17,2.85s-2.02,3.93-2.37,6.08c-.07.49-.11.95-.11,1.37,0,1.45.43,2.48,1.3,3.09.19.14.39.21.6.21Z"/>
            <path class="cls-3" d="M118.75,50.13h-.18c-1.45,0-2.54-.59-3.27-1.76-1.15-1.92-1.81-5.37-1.97-10.34-.07-2.11-.11-4.22-.11-6.33,0-2.93.11-6.41.32-10.44.33-6.84.71-11.57,1.16-14.17.68-3.89,2.11-5.84,4.29-5.84,2.79,0,4.21,2.02,4.25,6.05.07,4.66.12,7.48.14,8.46.02.97.18,1.93.46,2.87.23.75.61,1.12,1.12,1.12.14,0,.28-.02.42-.07,1.12-.42,2.23-.63,3.3-.63s2.39.32,3.94.97,2.92,1.87,4.11,3.67c2.09,3.16,3.13,6.88,3.13,11.14,0,2.7-.41,5.2-1.23,7.52-.7,1.95-1.69,3.54-2.97,4.78-1.28,1.24-2.85,1.86-4.73,1.86-2.25,0-4.57-.97-6.96-2.92l-1.79-1.44c-.3,0-.48.15-.53.46-.02.16-.04.34-.04.53,0,.21.02.44.05.69s.05.5.05.76c0,.59-.11,1.23-.33,1.93-.22.7-1.11,1.08-2.65,1.12ZM129.96,41.66c1.73,0,2.6-1.65,2.6-4.96,0-3-.68-5.59-2.04-7.77-.91-1.48-2.1-2.21-3.55-2.21-1.08,0-1.81.79-2.18,2.36-.19.82-.28,1.7-.28,2.64,0,3.21.74,5.91,2.21,8.09.84,1.24,1.92,1.86,3.23,1.86Z"/>
            <path class="cls-3" d="M148.42,50.48c-1.85,0-3.05-.86-3.59-2.57-.59-1.88-.88-5.55-.88-11.04,0-7.17.5-11.64,1.51-13.39.68-1.17,1.58-1.76,2.71-1.76s1.93.55,2.57,1.65c.7,1.27,1.23,3.59,1.58,6.96.33,3.14.49,6.34.49,9.6,0,.21-.01,1.23-.04,3.06-.02,1.83-.33,3.53-.91,5.12-.59,1.58-1.74,2.37-3.45,2.37ZM148.21,19.86c-2.39,0-3.59-1.41-3.59-4.22,0-1.17.29-2.11.88-2.81.58-.7,1.38-1.05,2.39-1.05.07,0,.39.02.97.05.57.04,1.25.42,2.04,1.16.79.74,1.18,1.69,1.18,2.87s-.42,2.19-1.27,2.99c-.73.68-1.59,1.02-2.6,1.02Z"/>
        </g>
    </g>
</svg>
